<svg width="24" height="24" viewBox="0 0 24 24" fill="none" xmlns="http://www.w3.org/2000/svg">
<path fill-rule="evenodd" clip-rule="evenodd" d="M12 0C5.376 0 0 5.376 0 12C0 18.624 5.376 24 12 24C18.624 24 24 18.624 24 12C24 5.376 18.624 0 12 0ZM11.9984 3.6001C13.9904 3.6001 15.5984 5.2081 15.5984 7.2001C15.5984 9.1921 13.9904 10.8001 11.9984 10.8001C10.0064 10.8001 8.39844 9.1921 8.39844 7.2001C8.39844 5.2081 10.0064 3.6001 11.9984 3.6001ZM12.0008 20.6401C9.00078 20.6401 6.34878 19.1041 4.80078 16.7761C4.83678 14.3881 9.60078 13.0801 12.0008 13.0801C14.3888 13.0801 19.1648 14.3881 19.2008 16.7761C17.6528 19.1041 15.0008 20.6401 12.0008 20.6401Z" fill="#8090A3"/>
</svg>
