<svg width="24" height="24" viewBox="0 0 24 24" fill="none" xmlns="http://www.w3.org/2000/svg">
<path d="M7.83333 2H5.33333C4.44928 2 3.60143 2.35119 2.97631 2.97631C2.35119 3.60143 2 4.44928 2 5.33333V7.83333C2 8.71739 2.35119 9.56523 2.97631 10.1904C3.60143 10.8155 4.44928 11.1667 5.33333 11.1667H7.83333C8.71739 11.1667 9.56523 10.8155 10.1904 10.1904C10.8155 9.56523 11.1667 8.71739 11.1667 7.83333V5.33333C11.1667 4.44928 10.8155 3.60143 10.1904 2.97631C9.56523 2.35119 8.71739 2 7.83333 2ZM9.5 7.83333C9.5 8.27536 9.3244 8.69928 9.01184 9.01184C8.69928 9.3244 8.27536 9.5 7.83333 9.5H5.33333C4.89131 9.5 4.46738 9.3244 4.15482 9.01184C3.84226 8.69928 3.66667 8.27536 3.66667 7.83333V5.33333C3.66667 4.89131 3.84226 4.46738 4.15482 4.15482C4.46738 3.84226 4.89131 3.66667 5.33333 3.66667H7.83333C8.27536 3.66667 8.69928 3.84226 9.01184 4.15482C9.3244 4.46738 9.5 4.89131 9.5 5.33333V7.83333Z" fill="#382A81"/>
<path d="M18.6667 2H16.1667C15.2826 2 14.4348 2.35119 13.8096 2.97631C13.1845 3.60143 12.8333 4.44928 12.8333 5.33333V7.83333C12.8333 8.71739 13.1845 9.56523 13.8096 10.1904C14.4348 10.8155 15.2826 11.1667 16.1667 11.1667H18.6667C19.5507 11.1667 20.3986 10.8155 21.0237 10.1904C21.6488 9.56523 22 8.71739 22 7.83333V5.33333C22 4.44928 21.6488 3.60143 21.0237 2.97631C20.3986 2.35119 19.5507 2 18.6667 2ZM20.3333 7.83333C20.3333 8.27536 20.1577 8.69928 19.8452 9.01184C19.5326 9.3244 19.1087 9.5 18.6667 9.5H16.1667C15.7246 9.5 15.3007 9.3244 14.9882 9.01184C14.6756 8.69928 14.5 8.27536 14.5 7.83333V5.33333C14.5 4.89131 14.6756 4.46738 14.9882 4.15482C15.3007 3.84226 15.7246 3.66667 16.1667 3.66667H18.6667C19.1087 3.66667 19.5326 3.84226 19.8452 4.15482C20.1577 4.46738 20.3333 4.89131 20.3333 5.33333V7.83333Z" fill="#382A81"/>
<path d="M7.83333 12.8333H5.33333C4.44928 12.8333 3.60143 13.1845 2.97631 13.8096C2.35119 14.4348 2 15.2826 2 16.1667V18.6667C2 19.5507 2.35119 20.3986 2.97631 21.0237C3.60143 21.6488 4.44928 22 5.33333 22H7.83333C8.71739 22 9.56523 21.6488 10.1904 21.0237C10.8155 20.3986 11.1667 19.5507 11.1667 18.6667V16.1667C11.1667 15.2826 10.8155 14.4348 10.1904 13.8096C9.56523 13.1845 8.71739 12.8333 7.83333 12.8333ZM9.5 18.6667C9.5 19.1087 9.3244 19.5326 9.01184 19.8452C8.69928 20.1577 8.27536 20.3333 7.83333 20.3333H5.33333C4.89131 20.3333 4.46738 20.1577 4.15482 19.8452C3.84226 19.5326 3.66667 19.1087 3.66667 18.6667V16.1667C3.66667 15.7246 3.84226 15.3007 4.15482 14.9882C4.46738 14.6756 4.89131 14.5 5.33333 14.5H7.83333C8.27536 14.5 8.69928 14.6756 9.01184 14.9882C9.3244 15.3007 9.5 15.7246 9.5 16.1667V18.6667Z" fill="#382A81"/>
<path d="M18.6667 12.8333H16.1667C15.2826 12.8333 14.4348 13.1845 13.8096 13.8096C13.1845 14.4348 12.8333 15.2826 12.8333 16.1667V18.6667C12.8333 19.5507 13.1845 20.3986 13.8096 21.0237C14.4348 21.6488 15.2826 22 16.1667 22H18.6667C19.5507 22 20.3986 21.6488 21.0237 21.0237C21.6488 20.3986 22 19.5507 22 18.6667V16.1667C22 15.2826 21.6488 14.4348 21.0237 13.8096C20.3986 13.1845 19.5507 12.8333 18.6667 12.8333ZM20.3333 18.6667C20.3333 19.1087 20.1577 19.5326 19.8452 19.8452C19.5326 20.1577 19.1087 20.3333 18.6667 20.3333H16.1667C15.7246 20.3333 15.3007 20.1577 14.9882 19.8452C14.6756 19.5326 14.5 19.1087 14.5 18.6667V16.1667C14.5 15.7246 14.6756 15.3007 14.9882 14.9882C15.3007 14.6756 15.7246 14.5 16.1667 14.5H18.6667C19.1087 14.5 19.5326 14.6756 19.8452 14.9882C20.1577 15.3007 20.3333 15.7246 20.3333 16.1667V18.6667Z" fill="#382A81"/>
</svg>
