<svg width="22" height="21" viewBox="0 0 22 21" fill="none" xmlns="http://www.w3.org/2000/svg">
<path fill-rule="evenodd" clip-rule="evenodd" d="M15.5532 1.61018e-05C14.1056 0 13.1724 0.172464 12.1027 0.696073C11.7066 0.88993 11.335 1.12339 10.99 1.39576C10.6582 1.13866 10.3015 0.915918 9.92181 0.728134C8.83132 0.188775 7.85028 0 6.45455 0C2.71644 0 0 3.09727 0 7.11988C0 10.1578 1.69383 13.0923 4.84884 15.9299C6.50489 17.4193 8.61932 18.8933 10.1336 19.6775L11 20.1261L11.8664 19.6775C13.3807 18.8933 15.4951 17.4193 17.1512 15.9299C20.3062 13.0923 22 10.1578 22 7.11988C22 3.13984 19.2579 0.0153583 15.5532 1.61018e-05ZM20 7.11988C20 9.4999 18.5862 11.9493 15.8137 14.4429C14.3022 15.8023 12.359 17.1609 11 17.8737C9.64104 17.1609 7.69782 15.8023 6.18628 14.4429C3.41382 11.9493 2 9.4999 2 7.11988C2 4.14772 3.88364 2 6.45455 2C7.56428 2 8.24813 2.13159 9.03514 2.52084C9.50001 2.75077 9.91088 3.05437 10.2665 3.43377L11.0023 4.2187L11.7315 3.42755C12.0951 3.03295 12.512 2.72244 12.9819 2.49243C13.7459 2.11849 14.387 2 15.5491 2.00001C18.0882 2.01053 20 4.18896 20 7.11988Z" fill="#A0A9B5"/>
</svg>
