<svg width="24" height="24" viewBox="0 0 24 24" fill="none" xmlns="http://www.w3.org/2000/svg">
<g clip-path="url(#clip0_1103_54822)">
<path d="M18.4565 23.5125C18.1004 23.5125 17.7131 23.4091 17.3196 23.2023L12 20.3984L8.73294 22.1215C8.35812 22.3198 7.89358 22.1753 7.69545 21.799C7.49788 21.4232 7.64217 20.9572 8.01754 20.7598L11.6422 18.8481C11.8661 18.7302 12.1334 18.7302 12.3574 18.8481L18.0334 21.8401C18.2993 21.9793 18.4536 21.9823 18.4873 21.9723C18.4752 21.9668 18.5203 21.8184 18.4694 21.5208L17.3857 15.1902C17.3429 14.94 17.4256 14.6857 17.6066 14.5087L22.1965 10.0257C22.4128 9.81439 22.4641 9.66725 22.4648 9.63257C22.454 9.64267 22.3284 9.55387 22.0284 9.51002L15.6863 8.58591C15.4364 8.5494 15.2199 8.39218 15.108 8.16505L13.2821 4.45816C13.0946 4.07674 13.2506 3.61588 13.6313 3.42746C14.0114 3.23904 14.4719 3.39572 14.6596 3.77678L16.307 7.1204L22.2498 7.98617C23.113 8.11258 23.7249 8.54647 23.9293 9.1763C24.1331 9.8065 23.8927 10.5176 23.2686 11.1269L18.9678 15.3282L19.9833 21.2603C20.1305 22.1202 19.908 22.8368 19.373 23.2265C19.1113 23.4169 18.799 23.5125 18.4565 23.5125Z" fill="#A0A9B5"/>
<path d="M5.54416 23.5127C5.20248 23.5127 4.88973 23.4171 4.6277 23.2267C4.09266 22.8374 3.86963 22.1213 4.01612 21.2614L5.03237 15.3284L0.73207 11.1284C0.108037 10.5191 -0.1333 9.80799 0.0710492 9.17761C0.275215 8.54741 0.886797 8.11352 1.7496 7.98729L7.69403 7.12153L10.3537 1.72366C10.7386 0.941183 11.3384 0.493164 11.9998 0.493164H12.0002C12.6618 0.493164 13.2625 0.942467 13.6472 1.72531C13.8346 2.10673 13.678 2.56777 13.2979 2.75601C12.9172 2.94369 12.457 2.78646 12.2694 2.40596C12.1359 2.13498 12.0123 2.04086 11.9795 2.02949C11.9865 2.04086 11.863 2.13461 11.7299 2.40467L8.89174 8.16525C8.77986 8.39238 8.56361 8.54961 8.31349 8.58612L1.97098 9.51023C1.67178 9.55371 1.54452 9.64324 1.52328 9.67112C1.53115 9.67002 1.587 9.81423 1.80417 10.0263L6.39396 14.5085C6.57506 14.6856 6.65782 14.9398 6.61497 15.1899L5.53042 21.521C5.48007 21.8179 5.52548 21.9663 5.54544 21.9949C5.54709 21.9825 5.70145 21.9795 5.96805 21.8395C6.34379 21.642 6.80797 21.7865 7.00518 22.1634C7.20239 22.5395 7.05755 23.0049 6.68199 23.2021C6.28794 23.4093 5.90067 23.5127 5.54416 23.5127Z" fill="#A0A9B5"/>
<path d="M13.7066 15.9521C13.4321 15.9521 13.1657 15.8436 12.9697 15.6481C12.7784 15.4563 12.6665 15.1855 12.6665 14.91C12.6665 14.6353 12.7789 14.368 12.9697 14.1763C13.3609 13.785 14.0556 13.785 14.4425 14.1763C14.638 14.368 14.7462 14.6353 14.7462 14.91C14.7462 15.185 14.6377 15.4563 14.4425 15.6481C14.2475 15.8436 13.9812 15.9521 13.7066 15.9521Z" fill="#A0A9B5"/>
<path d="M10.291 12.5297C10.0166 12.5297 9.7461 12.4171 9.55475 12.2217C9.35919 12.03 9.25098 11.759 9.25098 11.4877C9.25098 11.213 9.35919 10.9417 9.55475 10.75C9.94166 10.3581 10.6364 10.3581 11.0233 10.75C11.2188 10.9417 11.3311 11.2125 11.3311 11.4877C11.3311 11.7586 11.2188 12.0254 11.0233 12.2217C10.8319 12.4171 10.5615 12.5297 10.291 12.5297Z" fill="#A0A9B5"/>
<path d="M9.99835 15.9736C9.80151 15.9736 9.60522 15.8985 9.45507 15.7485C9.15495 15.4474 9.15495 14.9601 9.45507 14.6602L13.4578 10.6502C13.7583 10.3493 14.2441 10.35 14.544 10.6502C14.8441 10.9513 14.8441 11.4385 14.5436 11.7385L10.5407 15.7485C10.3915 15.8985 10.1946 15.9736 9.99835 15.9736Z" fill="#A0A9B5"/>
</g>
<defs>
<clipPath id="clip0_1103_54822">
<rect width="24" height="24" fill="white"/>
</clipPath>
</defs>
</svg>
