<svg width="24" height="24" viewBox="0 0 24 24" fill="none" xmlns="http://www.w3.org/2000/svg">
<g clip-path="url(#clip0_1103_21404)">
<path d="M8.66711 22.4428C8.0235 22.4428 7.38007 22.1979 6.89008 21.7067L0.68811 15.4925C-0.29187 14.5109 -0.29187 12.9133 0.68811 11.9318L8.94031 3.6638C10.0448 2.55715 10.8788 2.20215 12.3726 2.20215H15.3869C18.0346 2.20215 19.897 3.86011 20.1306 6.42622C20.1689 6.84984 19.8578 7.2241 19.4355 7.26245C19.012 7.30079 18.6398 6.98945 18.6008 6.56639C18.4396 4.79706 17.2383 3.74086 15.3864 3.74086C15.386 3.74086 15.3856 3.74086 15.3856 3.74086L12.3723 3.74049C11.2972 3.74049 10.8369 3.93882 10.0258 4.75119L1.77393 13.0199C1.59082 13.2034 1.48975 13.4492 1.48975 13.7123C1.48975 13.9752 1.59082 14.2212 1.77393 14.4051L7.97571 20.6186C8.35712 21.0004 8.97748 21.0008 9.35797 20.6186L17.6102 12.3506C18.421 11.5379 18.6194 11.0765 18.6194 9.99954V8.47808C18.6194 8.05299 18.963 7.70881 19.3874 7.70881C19.8116 7.70881 20.1552 8.05354 20.1552 8.47808V9.99954C20.1552 11.4962 19.8008 12.3319 18.696 13.4384L10.4442 21.7073C9.95416 22.1973 9.31055 22.4428 8.66711 22.4428Z" fill="#A0A9B5"/>
<path d="M15.744 8.78706C15.7437 8.78706 15.7437 8.78706 15.7433 8.78706C14.5527 8.7867 13.5839 7.81507 13.583 6.62219C13.5839 5.42857 14.5527 4.45732 15.7433 4.45695C16.6612 4.45787 17.4471 5.03431 17.7598 5.84357C20.6102 5.75863 22.4167 5.08421 22.4167 4.07681C22.4167 3.74676 22.2812 3.4934 22.0134 3.32369C21.6277 3.07987 20.888 2.97566 19.9688 3.41414C19.5852 3.59797 19.1276 3.43377 18.9451 3.05033C18.7629 2.66689 18.9251 2.2075 19.3082 2.02495C20.5668 1.42393 21.8848 1.42228 22.8337 2.02239C23.5449 2.47261 23.953 3.22114 23.953 4.07681C23.953 6.21453 21.532 7.392 17.1364 7.392C16.7121 7.392 16.3684 7.04783 16.3684 6.62311C16.368 6.27801 16.0872 5.99695 15.7427 5.99658C15.3992 5.99658 15.1189 6.27801 15.1189 6.62311C15.1189 6.96765 15.3992 7.24872 15.7437 7.24909C16.1679 7.24909 16.5116 7.59418 16.5116 8.0189C16.512 8.4427 16.1675 8.78706 15.744 8.78706Z" fill="#A0A9B5"/>
<path d="M10.124 8.02658C9.84955 8.02658 9.58331 7.91393 9.38776 7.72222C9.1922 7.52628 9.08398 7.25952 9.08398 6.98451C9.08398 6.70949 9.1922 6.44274 9.38776 6.2468C9.77466 5.85914 10.4734 5.85914 10.8561 6.2468C11.0516 6.44274 11.1641 6.70949 11.1641 6.98451C11.1641 7.25952 11.0516 7.52628 10.8561 7.72222C10.6647 7.91393 10.3945 8.02658 10.124 8.02658Z" fill="#A0A9B5"/>
<path d="M12.8949 11.2358C12.4873 10.8272 12.4873 10.1687 12.8949 9.76016C13.2984 9.35177 13.9598 9.35177 14.3628 9.76016C14.7706 10.1687 14.7706 10.8272 14.3628 11.2358C14.1596 11.4357 13.8934 11.5399 13.6266 11.5399C13.3603 11.5399 13.095 11.4357 12.8949 11.2358ZM11.1395 9.47671C10.7361 9.07254 10.7361 8.40987 11.1395 8.00551C11.5472 7.59712 12.2044 7.59712 12.6125 8.00551C13.0159 8.40987 13.0159 9.07254 12.6125 9.47671C12.4082 9.68109 12.1425 9.78107 11.8757 9.78107C11.6095 9.78107 11.3432 9.68109 11.1395 9.47671Z" fill="#A0A9B5"/>
<path d="M15.3828 13.2946C15.1083 13.2946 14.8416 13.1858 14.6462 12.9902C14.4506 12.7982 14.3428 12.5275 14.3428 12.2525C14.3428 11.9775 14.451 11.7108 14.6462 11.5148C15.0329 11.1272 15.7276 11.1272 16.1187 11.519C16.3101 11.7108 16.4223 11.9775 16.4223 12.2525C16.4223 12.5275 16.3097 12.7982 16.1187 12.9902C15.9232 13.1858 15.6527 13.2946 15.3828 13.2946Z" fill="#A0A9B5"/>
<path d="M6.63123 15.2819C6.43402 15.2819 6.24396 15.2058 6.10077 15.0685C5.94934 14.9236 5.86328 14.7227 5.86328 14.5126V12.0302C5.86328 11.6051 6.20734 11.2607 6.63123 11.2607C7.05511 11.2607 7.39899 11.6055 7.39899 12.0302V13.7069L11.7844 13.5073C12.2119 13.4873 12.5671 13.8166 12.5864 14.2409C12.606 14.666 12.2776 15.0256 11.8541 15.0449L6.66656 15.2812C6.65411 15.2815 6.64276 15.2819 6.63123 15.2819Z" fill="#A0A9B5"/>
</g>
<defs>
<clipPath id="clip0_1103_21404">
<rect width="24" height="24" fill="white"/>
</clipPath>
</defs>
</svg>
