<svg width="24" height="24" viewBox="0 0 24 24" fill="none" xmlns="http://www.w3.org/2000/svg">
<g clip-path="url(#clip0_1103_54756)">
<path d="M15.2816 23.4028C15.0123 23.4028 14.7539 23.3211 14.5342 23.1669L11.9999 21.3939L9.46494 23.1673C9.13194 23.4002 8.70219 23.4636 8.31594 23.3391C7.92969 23.2134 7.61994 22.9093 7.48719 22.5253L6.47919 19.6003L3.38694 19.5441C2.98082 19.5362 2.59607 19.3356 2.35757 19.0078C2.11869 18.6786 2.04669 18.2503 2.16482 17.8626L3.06519 14.9031L0.597691 13.0389C0.273691 12.7944 0.0805664 12.4059 0.0805664 11.9998C0.0805664 11.5937 0.274066 11.2052 0.598066 10.9607L3.06519 9.09618L2.16482 6.13668C2.04669 5.74856 2.11869 5.3203 2.35757 4.99181C2.59644 4.6633 2.98119 4.46268 3.38732 4.45555L6.47957 4.39893L7.48794 1.47468C7.62032 1.0903 7.93044 0.785805 8.31707 0.660555C8.70294 0.53568 9.13307 0.59868 9.46569 0.832305L11.9999 2.60605L14.5346 0.832305C14.8694 0.59943 15.2981 0.535305 15.6843 0.66093C16.0702 0.78618 16.3799 1.09068 16.5127 1.47468L17.5207 4.3993L20.6129 4.45593C21.0187 4.46343 21.4034 4.66368 21.6427 4.99181C21.8819 5.32105 21.9536 5.7493 21.8351 6.13743L20.9354 9.09618L23.4018 10.9603C23.7258 11.2048 23.9197 11.5933 23.9197 11.9994C23.9197 12.4056 23.7262 12.7941 23.4018 13.0386L20.9351 14.9031L21.8351 17.8626C21.9536 18.2503 21.8816 18.6786 21.6423 19.0074C21.4038 19.3356 21.0194 19.5362 20.6133 19.5441L17.5207 19.6003L16.5127 22.5249C16.3799 22.9089 16.0698 23.2134 15.6839 23.3391C15.5534 23.3814 15.4184 23.4028 15.2816 23.4028ZM8.71794 1.72218C8.69957 1.72218 8.68119 1.72518 8.66319 1.7308C8.61069 1.74768 8.56869 1.7893 8.55069 1.84143L7.41407 5.13768C7.33719 5.36118 7.12869 5.51268 6.89244 5.51681L3.40682 5.58055C3.35169 5.58168 3.29919 5.60906 3.26657 5.65368C3.23394 5.69868 3.22419 5.7568 3.24032 5.80968L4.25507 9.14493C4.32369 9.37068 4.24419 9.61518 4.05594 9.75731L1.27532 11.8588C1.23107 11.8922 1.20482 11.9451 1.20482 12.0002C1.20482 12.0553 1.23107 12.1086 1.27532 12.1416L4.05594 14.2431C4.24419 14.3852 4.32369 14.6297 4.25507 14.8554L3.24032 18.1907C3.22419 18.2436 3.23394 18.3021 3.26694 18.3471C3.29919 18.3913 3.35169 18.4183 3.40719 18.4194L6.89244 18.4832C7.12869 18.4877 7.33719 18.6392 7.41407 18.8623L8.55032 22.1586C8.56832 22.2111 8.61069 22.2523 8.66357 22.2696C8.71569 22.2864 8.77419 22.2782 8.81957 22.2459L11.6774 20.2464C11.8713 20.1111 12.1286 20.1111 12.3224 20.2464L15.1799 22.2456C15.2253 22.2778 15.2861 22.2846 15.3371 22.2692C15.3892 22.2519 15.4316 22.2107 15.4496 22.1578L16.5858 18.8619C16.6627 18.6388 16.8712 18.4873 17.1074 18.4828L20.5931 18.4191C20.6482 18.4179 20.7007 18.3909 20.7329 18.3463C20.7663 18.3009 20.7757 18.2443 20.7596 18.1907L19.7448 14.8551C19.6758 14.6293 19.7553 14.3848 19.9436 14.2427L22.7242 12.1412C22.7684 12.1078 22.7947 12.0549 22.7947 11.9998C22.7947 11.9447 22.7684 11.8918 22.7242 11.8588L22.7238 11.8584L19.9436 9.75693C19.7553 9.61481 19.6758 9.37031 19.7444 9.14456L20.7588 5.80931C20.7753 5.75605 20.7656 5.69793 20.7329 5.65293C20.7003 5.60793 20.6489 5.58131 20.5927 5.58018L17.1071 5.51643C16.8708 5.5123 16.6623 5.36081 16.5854 5.13731L15.4492 1.84105C15.4312 1.78893 15.3888 1.7473 15.3359 1.73043C15.2834 1.71318 15.2246 1.72218 15.1788 1.75405L12.3221 3.75318C12.1282 3.88856 11.8709 3.88856 11.6771 3.75318L8.81957 1.75368C8.78994 1.73305 8.75394 1.72218 8.71794 1.72218Z" fill="#A0A9B5"/>
<path d="M8.44986 11.1072C8.43261 11.0622 8.40561 11.0251 8.36811 10.9958C8.33061 10.9673 8.28299 10.9501 8.22674 10.9448C8.17874 10.9403 8.12286 10.946 8.05499 10.9632C7.99949 10.9771 7.93311 10.9981 7.85361 11.0273C7.76961 11.0581 7.70249 11.0862 7.65149 11.1117C7.59261 11.1406 7.54461 11.1725 7.50824 11.2062C7.46511 11.2471 7.43774 11.2887 7.42536 11.3307C7.40886 11.3813 7.40999 11.435 7.42874 11.4837L8.15549 13.4615C8.19824 13.5777 8.24399 13.6981 8.29199 13.8226C8.21624 13.7495 8.13899 13.676 8.05949 13.6032L6.43161 12.1433C6.35399 12.0687 6.28236 12.0083 6.21749 11.9615C6.14511 11.9105 6.07274 11.8737 6.00186 11.8531C5.92911 11.8325 5.85336 11.8253 5.77274 11.834C5.69999 11.8422 5.61674 11.8632 5.52524 11.8973L5.06586 12.0661C4.94924 12.1088 4.86111 12.182 4.80449 12.2828C4.74336 12.3905 4.73886 12.5157 4.79024 12.656L6.18299 16.4446C6.19986 16.4903 6.22799 16.5297 6.26361 16.5567C6.30299 16.5871 6.35174 16.6036 6.41324 16.607C6.41961 16.6073 6.42636 16.6077 6.43311 16.6077C6.47399 16.6077 6.52161 16.6013 6.57711 16.5886C6.63374 16.5758 6.70349 16.5541 6.78636 16.5241C6.87074 16.4926 6.93861 16.4637 6.98999 16.4367C7.04849 16.4063 7.09349 16.3767 7.12686 16.346C7.17224 16.3043 7.19999 16.2608 7.21161 16.2143C7.22361 16.1671 7.22099 16.1172 7.20374 16.0703L6.39336 13.865C6.35361 13.7558 6.31311 13.6493 6.27261 13.5447C6.33374 13.6036 6.39374 13.6595 6.45224 13.7131L8.22336 15.2963C8.32161 15.3886 8.40674 15.4621 8.47761 15.5165C8.55786 15.578 8.63324 15.6215 8.70674 15.6485C8.78586 15.6781 8.86686 15.6897 8.94824 15.6837C9.02174 15.6773 9.10049 15.6586 9.18861 15.626L9.55311 15.4921C9.60636 15.4722 9.65699 15.4452 9.70311 15.4103C9.75374 15.3725 9.79424 15.3256 9.82274 15.272C9.85124 15.2195 9.86774 15.1598 9.87299 15.0935C9.87674 15.0293 9.86624 14.963 9.84149 14.8962L8.44986 11.1072Z" fill="#A0A9B5"/>
<path d="M13.6223 13.6057C13.5971 13.5367 13.572 13.4793 13.5495 13.4347C13.5225 13.3833 13.4951 13.3428 13.4678 13.3132C13.4314 13.2734 13.3905 13.2464 13.3444 13.2326C13.2968 13.2187 13.2465 13.2209 13.2015 13.2374L11.808 13.7493L11.4626 12.8099L12.6124 12.3873C12.6574 12.3704 12.6953 12.3408 12.7196 12.3059C12.7481 12.2684 12.7639 12.2212 12.7669 12.1661C12.7695 12.1241 12.7646 12.0764 12.7519 12.0194C12.741 11.9726 12.723 11.9141 12.6979 11.8451C12.6735 11.7779 12.6491 11.7224 12.6259 11.6771C12.5985 11.6246 12.5708 11.5844 12.5423 11.5552C12.507 11.5177 12.4673 11.4926 12.4189 11.4779C12.3709 11.4652 12.3229 11.4674 12.2794 11.4839L11.13 11.9062L10.8431 11.1262L12.2235 10.6188C12.2704 10.6012 12.3094 10.5701 12.3371 10.5251C12.36 10.4876 12.3724 10.4418 12.3743 10.3916C12.3761 10.3488 12.3705 10.3004 12.3574 10.2434C12.3461 10.1947 12.3285 10.1369 12.3041 10.0694C12.2775 9.99782 12.2528 9.94045 12.2303 9.89695C12.204 9.84595 12.177 9.80507 12.1485 9.77395C12.1114 9.7327 12.0709 9.70532 12.0244 9.69145C11.9783 9.67907 11.9303 9.68132 11.8856 9.6982L9.78114 10.4718C9.67914 10.5093 9.60227 10.5734 9.55352 10.6616C9.50064 10.7564 9.49839 10.8723 9.54752 11.0058L10.8983 14.6804C10.947 14.8136 11.0231 14.9006 11.1244 14.9388C11.1709 14.9564 11.2185 14.9654 11.2673 14.9654C11.3179 14.9654 11.3693 14.9557 11.4218 14.9366L13.5394 14.1581C13.5859 14.1412 13.6249 14.1101 13.6519 14.0684C13.6774 14.0294 13.6913 13.9822 13.6935 13.9301C13.6954 13.8881 13.6901 13.8397 13.677 13.7819C13.6654 13.7336 13.6478 13.6747 13.6223 13.6057Z" fill="#A0A9B5"/>
<path d="M18.8594 7.81976C18.8481 7.72264 18.8346 7.64764 18.8189 7.59514C18.7877 7.48826 18.7251 7.43951 18.6775 7.41739C18.6167 7.38926 18.5421 7.38589 18.457 7.40801C18.3985 7.42301 18.319 7.44851 18.2181 7.48564C18.1109 7.52539 18.0287 7.55876 17.9717 7.58651C17.9027 7.61951 17.8517 7.65326 17.815 7.69001C17.7535 7.75189 17.7381 7.81601 17.7366 7.85689C17.7344 7.89551 17.737 7.93751 17.7441 7.98064L18.1195 10.9345L16.4526 8.47376C16.4204 8.42164 16.3874 8.38114 16.3499 8.35001C16.3034 8.31139 16.243 8.28926 16.1755 8.28626C16.1189 8.28139 16.0574 8.29339 15.9794 8.31626C15.9134 8.33539 15.8271 8.36501 15.7184 8.40439C15.6156 8.44226 15.5354 8.47526 15.475 8.50376C15.4052 8.53751 15.3524 8.57126 15.3156 8.60614C15.2646 8.65264 15.2331 8.71001 15.2241 8.77151C15.2174 8.81689 15.2185 8.86826 15.2267 8.91964L15.5706 11.8529L13.954 9.37151C13.9251 9.32089 13.8981 9.28301 13.8692 9.25451C13.8246 9.21176 13.7672 9.18926 13.6986 9.18814C13.6401 9.18776 13.5895 9.19751 13.513 9.22114C13.4504 9.24026 13.3664 9.26914 13.2621 9.30776C13.147 9.34976 13.0577 9.38614 12.9951 9.41539C12.9081 9.45664 12.85 9.50576 12.8174 9.56539C12.7911 9.61414 12.7686 9.69439 12.8121 9.79564C12.8335 9.84739 12.8706 9.91151 12.9257 9.99251L15.2346 13.3184C15.2759 13.3773 15.3156 13.4219 15.3572 13.4545C15.4116 13.4973 15.4795 13.519 15.5586 13.5198H15.5616C15.622 13.5198 15.6955 13.5074 15.7859 13.4819C15.8654 13.459 15.9692 13.4238 16.0994 13.3761C16.2224 13.3308 16.321 13.2914 16.3934 13.2588C16.4755 13.2213 16.5415 13.1811 16.5887 13.1376C16.6454 13.0855 16.681 13.0255 16.6941 12.9603C16.7057 12.9063 16.7065 12.8459 16.6967 12.778L16.4155 10.3934L17.7719 12.3783C17.8105 12.4409 17.851 12.4878 17.8952 12.5219C17.9504 12.5643 18.0175 12.586 18.0962 12.5864C18.1431 12.5808 18.2327 12.5744 18.3227 12.5489C18.4026 12.5264 18.5057 12.4911 18.634 12.4443C18.7487 12.4023 18.8421 12.3648 18.9134 12.3318C18.9955 12.2943 19.0592 12.2564 19.1061 12.2166C19.1676 12.1664 19.2081 12.1071 19.2269 12.04C19.2426 11.983 19.2467 11.9178 19.2381 11.8458L18.8594 7.81976Z" fill="#A0A9B5"/>
</g>
<defs>
<clipPath id="clip0_1103_54756">
<rect width="24" height="24" fill="white"/>
</clipPath>
</defs>
</svg>
