<svg width="24" height="24" viewBox="0 0 24 24" fill="none" xmlns="http://www.w3.org/2000/svg">
<g clip-path="url(#clip0_1103_54887)">
<path d="M21 23.953H3.04733C2.83433 23.953 2.6305 23.8647 2.48502 23.7093C2.33953 23.5536 2.26541 23.3447 2.27954 23.1327L3.43242 6.27747C3.45994 5.87445 3.7955 5.56152 4.20022 5.56152H19.8467C20.2718 5.56152 20.6166 5.90558 20.6166 6.32947C20.6166 6.75336 20.2718 7.09741 19.8467 7.09741H4.91885L3.87145 22.4171H20.1761L19.2208 8.45404C19.192 8.03052 19.5121 7.66449 19.9359 7.63538C20.3615 7.60864 20.727 7.92615 20.7562 8.34912L21.7678 23.1331C21.7825 23.3453 21.7078 23.554 21.5627 23.7097C21.4168 23.8647 21.2136 23.953 21 23.953Z" fill="#A0A9B5"/>
<path d="M15.1924 9.46051C14.7672 9.46051 14.423 9.11646 14.423 8.69257V3.74451C14.423 2.50122 13.4092 1.48938 12.1638 1.48938H11.9358C10.6899 1.48938 9.67659 2.50122 9.67659 3.74451V8.69293C9.67659 9.11719 9.33186 9.46088 8.90714 9.46088C8.48242 9.46088 8.1377 9.11682 8.1377 8.69293V3.74451C8.1377 1.65381 9.84134 -0.046875 11.9358 -0.046875H12.1638C14.2582 -0.046875 15.9622 1.65381 15.9622 3.74451V8.69293C15.9622 9.11682 15.6175 9.46051 15.1924 9.46051Z" fill="#A0A9B5"/>
<path d="M14.8969 20.2896C14.6672 20.2896 14.4304 20.2264 14.1928 20.1021L12.0237 18.963L9.85426 20.1021C9.26699 20.4106 8.65092 20.3212 8.29775 19.9026C8.06109 19.6214 7.97192 19.2272 8.04733 18.7912L8.46122 16.3804L6.70804 14.6748C6.30956 14.2879 6.16242 13.8137 6.30424 13.3744C6.44642 12.9342 6.84399 12.6356 7.39493 12.5532L9.82179 12.2025L10.9066 10.0093C11.1526 9.51141 11.5599 9.22559 12.0234 9.22559C12.4864 9.22559 12.8937 9.51141 13.1408 10.0093L14.2253 12.2025L16.6492 12.5532C17.2027 12.6352 17.6003 12.9342 17.7428 13.3735C17.885 13.8124 17.7388 14.2863 17.3414 14.6739L15.5859 16.3808L15.9997 18.7923C16.0752 19.2266 15.9864 19.6214 15.7493 19.9026C15.5393 20.1522 15.2365 20.2896 14.8969 20.2896ZM12.0237 17.3273C12.1466 17.3273 12.2697 17.3564 12.3818 17.4159L14.3809 18.4645L14.0007 16.2424C13.9578 15.9926 14.0407 15.7385 14.222 15.5621L15.8414 13.9883L13.6043 13.6652C13.3535 13.6285 13.137 13.4718 13.0245 13.2449L12.025 11.2233L11.0229 13.2449C10.9108 13.4718 10.6942 13.6285 10.4435 13.6652L8.20731 13.9883L9.82509 15.5625C10.0064 15.739 10.0893 15.9926 10.0463 16.2424L9.66493 18.4633L11.6652 17.4153C11.7779 17.3564 11.9008 17.3273 12.0237 17.3273Z" fill="#A0A9B5"/>
</g>
<defs>
<clipPath id="clip0_1103_54887">
<rect width="24" height="24" fill="white"/>
</clipPath>
</defs>
</svg>
