<svg width="48" height="48" viewBox="0 0 48 48" fill="none" xmlns="http://www.w3.org/2000/svg">
<g clip-path="url(#clip0_1276_77749)">
<g clip-path="url(#clip1_1276_77749)">
<path opacity="0.1" fill-rule="evenodd" clip-rule="evenodd" d="M24 48C37.2548 48 48 37.2548 48 24C48 10.7452 37.2548 0 24 0C10.7452 0 0 10.7452 0 24C0 37.2548 10.7452 48 24 48Z" fill="#F08222"/>
<g opacity="0.6">
<path fill-rule="evenodd" clip-rule="evenodd" d="M36.6438 20.3823C36.9539 20.3823 37.2513 20.2628 37.4705 20.05C37.6897 19.8373 37.8129 19.5487 37.8129 19.2478C37.8129 18.9469 37.6897 18.6584 37.4705 18.4456C37.2513 18.2328 36.9539 18.1133 36.6438 18.1133H36.6047C35.8865 18.0832 35.167 18.0609 34.4205 18.2168L34.3678 18.2299C33.8223 18.3288 33.3221 18.5903 32.9369 18.9779C32.5211 19.4037 32.2092 20.026 32.0972 20.9666C32.0054 21.7356 32.0459 22.7652 32.0864 23.7962C32.1357 24.5849 32.1402 25.3756 32.0999 26.1648C32.0877 26.3076 32.0715 26.4268 32.0526 26.5355C32.0405 26.6062 32.027 26.6665 32.0135 26.7281C31.6731 26.3306 31.3614 25.9109 31.0807 25.4718C30.5717 24.708 30.0007 23.7989 29.4607 22.9342C29.0179 22.2268 28.5913 21.543 28.3942 21.2377C27.9892 20.6076 27.6639 20.1334 27.3899 19.7679C27.1568 19.447 26.8977 19.1448 26.615 18.864C26.3836 18.6342 26.1172 18.4403 25.8253 18.2889C25.5649 18.1532 25.2813 18.0644 24.9883 18.0269C24.6349 17.971 24.2728 18.0026 23.9353 18.1186C23.5151 18.2704 23.1384 18.5174 22.8365 18.8391C22.4627 19.2336 22.1248 19.6587 21.8267 20.1098C21.446 20.6613 21.0302 21.3111 20.5361 22.1024C20.0596 22.8661 19.4561 23.8447 18.8001 24.9281L16.7967 28.2372C16.6404 28.4959 16.5965 28.8042 16.6744 29.0944C16.7524 29.3845 16.946 29.6327 17.2125 29.7844C17.4791 29.936 17.7968 29.9787 18.0958 29.9031C18.3948 29.8274 18.6505 29.6396 18.8068 29.3809C19.2577 28.6355 19.7099 27.8901 20.8102 26.0809C21.4257 25.0709 22.0103 24.1159 22.5368 23.2735C23.0457 22.4574 23.4507 21.822 23.7639 21.3687C23.9843 21.0316 24.2336 20.713 24.5091 20.4164C24.5588 20.3627 24.614 20.314 24.6737 20.2709C24.6988 20.2727 24.7235 20.2784 24.7466 20.288C24.8252 20.3379 24.8968 20.3973 24.9599 20.4648C25.153 20.662 25.3303 20.8731 25.4905 21.0963C25.7362 21.4251 26.0305 21.8574 26.4044 22.4325C26.8364 23.1045 27.1442 23.5958 27.4601 24.1041C28.0351 25.0211 28.6386 25.9905 29.1138 26.7032C29.4724 27.2593 29.875 27.7875 30.3179 28.2831C30.8107 28.8071 31.3007 29.1189 31.8542 29.2106L31.9608 29.2263H32.0216C32.333 29.2529 32.6463 29.2032 32.9328 29.0819C33.2194 28.9606 33.47 28.7716 33.6618 28.532C33.979 28.1665 34.2274 27.6333 34.3557 26.9062C34.3881 26.7241 34.4124 26.5355 34.4299 26.3403C34.492 25.608 34.4542 24.6556 34.4164 23.7058C34.3786 22.7561 34.3422 21.8404 34.4164 21.2168C34.4637 20.8238 34.5379 20.6207 34.6257 20.5303C34.6987 20.479 34.7835 20.4457 34.8727 20.4334L34.9118 20.4255C35.3884 20.326 35.9432 20.343 36.5021 20.3666C36.5469 20.3717 36.592 20.3743 36.6371 20.3744L36.6438 20.3823ZM24.7088 20.2513C24.7291 20.2447 24.7088 20.2513 24.6967 20.2513H24.7088Z" fill="#F08222"/>
<path fill-rule="evenodd" clip-rule="evenodd" d="M24.0594 29.4184C24.1354 29.5509 24.2381 29.6672 24.3613 29.7604C24.4845 29.8536 24.6257 29.9218 24.7767 29.961C24.9276 30.0002 25.085 30.0096 25.2398 29.9886C25.3945 29.9677 25.5433 29.9167 25.6773 29.8389C25.8114 29.761 25.928 29.6578 26.0201 29.5354C26.1123 29.413 26.1782 29.2739 26.2139 29.1263C26.2495 28.9787 26.2543 28.8256 26.2279 28.6762C26.2015 28.5268 26.1444 28.384 26.06 28.2564C25.1636 26.7997 24.2673 25.3416 23.4654 24.0473C22.6257 22.6914 21.9075 21.5399 21.431 20.7971C21.0711 20.2081 20.6767 19.6395 20.2498 19.0941C19.8448 18.6094 19.537 18.409 19.1469 18.2609C18.7097 18.0888 18.2287 18.0509 17.7686 18.1522C17.2168 18.2818 16.7162 18.565 16.3282 18.967C15.6626 19.6142 14.989 20.7212 14.0967 22.1871L13.8267 22.6207C12.69 24.4836 11.5317 26.3451 10.3667 28.2067L10.3546 28.225C10.1947 28.4825 10.1468 28.791 10.2214 29.0827C10.2959 29.3745 10.4868 29.6255 10.7521 29.7807C11.0174 29.9358 11.3354 29.9823 11.636 29.91C11.9367 29.8376 12.1954 29.6523 12.3552 29.3949L12.3674 29.3765C13.6971 27.2451 15.0268 25.1163 15.8449 23.7748L16.1149 23.3412C16.9046 22.022 17.5121 21.0264 17.9846 20.5718C18.0624 20.4805 18.1627 20.4098 18.2762 20.3661L18.3031 20.3766C18.3193 20.3832 18.3531 20.4159 18.4462 20.5286C18.807 20.9997 19.1418 21.489 19.4493 21.9945C20.0068 22.8644 20.702 23.9766 21.4661 25.2093C22.268 26.5036 23.1644 27.9617 24.0594 29.4184Z" fill="#F08222"/>
</g>
</g>
</g>
<defs>
<clipPath id="clip0_1276_77749">
<rect width="48" height="48" rx="4" fill="white"/>
</clipPath>
<clipPath id="clip1_1276_77749">
<rect width="48" height="48" fill="white"/>
</clipPath>
</defs>
</svg>
