<svg width="20" height="14" viewBox="0 0 20 14" fill="none" xmlns="http://www.w3.org/2000/svg">
<path d="M19.1304 6.08691H0.869553C0.389308 6.08691 0 6.47622 0 6.95647C0 7.43671 0.389308 7.82602 0.869553 7.82602H19.1304C19.6107 7.82602 20 7.43671 20 6.95647C20 6.47622 19.6107 6.08691 19.1304 6.08691Z" fill="#8090A3"/>
<path d="M0.869553 1.73911H19.1304C19.6107 1.73911 20 1.3498 20 0.869553C20 0.389308 19.6107 0 19.1304 0H0.869553C0.389308 0 0 0.389308 0 0.869553C0 1.3498 0.389308 1.73911 0.869553 1.73911Z" fill="#8090A3"/>
<path d="M19.1304 12.174H0.869553C0.389308 12.174 0 12.5633 0 13.0435C0 13.5238 0.389308 13.9131 0.869553 13.9131H19.1304C19.6107 13.9131 20 13.5238 20 13.0435C20 12.5633 19.6107 12.174 19.1304 12.174Z" fill="#8090A3"/>
</svg>
