<svg width="20" height="20" viewBox="0 0 20 20" fill="none" xmlns="http://www.w3.org/2000/svg">
<path d="M9.59262 1.67639C5.15509 1.88579 1.6533 5.55161 1.66666 9.95816C1.67076 11.3003 1.99742 12.5671 2.57374 13.6867L1.68901 17.9465C1.64119 18.177 1.8507 18.3788 2.08148 18.3245L6.28959 17.3356C7.37075 17.8699 8.5851 18.1783 9.87026 18.1978C14.4058 18.2666 18.1876 14.6944 18.3291 10.1971C18.4805 5.37628 14.4695 1.44595 9.59262 1.67639ZM14.6139 14.5093C13.3815 15.7317 11.7429 16.4049 9.99998 16.4049C8.9795 16.4049 8.00235 16.1778 7.09584 15.7299L6.50996 15.4403L3.92976 16.0466L4.47281 13.4316L4.1842 12.8707C3.71354 11.9565 3.47491 10.968 3.47491 9.93255C3.47491 8.20367 4.15366 6.5784 5.38598 5.35592C6.60733 4.14432 8.27266 3.46028 10.0001 3.46028C11.7428 3.46028 13.3815 4.13355 14.6138 5.35592C15.8461 6.57829 16.5249 8.20372 16.5249 9.93238C16.525 11.6459 15.8353 13.2978 14.6139 14.5093Z" fill="white"/>
<path d="M14.0442 11.7253L12.43 11.2656C12.2179 11.2053 11.9893 11.265 11.8347 11.4213L11.4399 11.8201C11.2735 11.9884 11.021 12.0424 10.8006 11.954C10.037 11.6475 8.43074 10.2308 8.02076 9.52236C7.90224 9.31793 7.92186 9.0625 8.06722 8.87578L8.41174 8.43357C8.54675 8.26039 8.57519 8.02758 8.48596 7.82732L7.80687 6.30378C7.64422 5.93891 7.17413 5.83263 6.86698 6.09032C6.41651 6.46833 5.88198 7.04254 5.81709 7.67885C5.7025 8.8007 6.1876 10.2148 8.0215 11.9128C10.1403 13.8746 11.8372 14.1336 12.9421 13.8682C13.5687 13.7178 14.0695 13.1143 14.3854 12.6201C14.601 12.2829 14.4306 11.8354 14.0442 11.7253Z" fill="white"/>
<path d="M15.6879 3.89117L14.4241 5.1761C14.4884 5.23505 14.5516 5.29415 14.6138 5.35592C15.8461 6.57829 16.5249 8.20372 16.5249 9.93238C16.525 11.6459 15.8353 13.2978 14.6139 14.5093C13.3815 15.7317 11.7429 16.4049 9.99998 16.4049C8.9795 16.4049 8.00235 16.1778 7.09584 15.7299L6.50996 15.4403L3.92976 16.0466L3.98391 15.7899L1.69921 18.1124C1.74959 18.2626 1.90922 18.3649 2.08148 18.3245L6.28959 17.3356C7.37075 17.8699 8.5851 18.1783 9.87026 18.1978C14.4058 18.2666 18.1876 14.6944 18.3291 10.1971C18.4073 7.70742 17.376 5.45528 15.6879 3.89117Z" fill="white"/>
<path d="M14.0442 11.7253L12.43 11.2656C12.2179 11.2053 11.9893 11.265 11.8347 11.4213L11.4399 11.8201C11.2735 11.9884 11.021 12.0424 10.8006 11.954C10.3596 11.7769 9.63808 11.2294 9.02763 10.662L7.90547 11.8029C7.94397 11.8394 7.9818 11.8759 8.0215 11.9128C10.1403 13.8746 11.8372 14.1336 12.9421 13.8682C13.5687 13.7178 14.0695 13.1143 14.3854 12.6201C14.601 12.2829 14.4306 11.8354 14.0442 11.7253Z" fill="white"/>
</svg>
