<svg width="72" height="72" viewBox="0 0 72 72" fill="none" xmlns="http://www.w3.org/2000/svg">
<rect width="72" height="72" fill="#F08222" fill-opacity="0.1"/>
<path d="M20.9993 22.6666L21.9029 22.2381L21.6318 21.6666H20.9993V22.6666ZM26.9993 35.3166L27.8744 35.8008L28.1228 35.3517L27.9029 34.8881L26.9993 35.3166ZM24.7493 39.3833L23.8743 38.8992L23.8712 38.9049L24.7493 39.3833ZM27.666 41L26.7898 40.5181L25.9747 42H27.666V41ZM29.4993 37.6666V36.6666H28.9081L28.6231 37.1847L29.4993 37.6666ZM44.8327 35.95L43.9571 35.467L43.9559 35.4691L44.8327 35.95ZM50.7993 25.1333L49.927 24.6443L49.9237 24.6503L50.7993 25.1333ZM24.6827 22.6666L23.7771 23.0909L24.0469 23.6666H24.6827V22.6666ZM23.566 20.2833L22.6565 20.6991L22.6605 20.7076L23.566 20.2833ZM27.666 45C25.2739 45 23.3493 46.9542 23.3493 49.3333H25.3493C25.3493 48.0457 26.3915 47 27.666 47V45ZM23.3493 49.3333C23.3493 51.7124 25.2739 53.6666 27.666 53.6666V51.6666C26.3915 51.6666 25.3493 50.6209 25.3493 49.3333H23.3493ZM27.666 53.6666C30.0516 53.6666 31.9993 51.7189 31.9993 49.3333H29.9993C29.9993 50.6144 28.9471 51.6666 27.666 51.6666V53.6666ZM31.9993 49.3333C31.9993 46.9477 30.0516 45 27.666 45V47C28.9471 47 29.9993 48.0523 29.9993 49.3333H31.9993ZM16.666 21C16.666 22.4689 17.8637 23.6666 19.3327 23.6666V21.6666C18.9683 21.6666 18.666 21.3644 18.666 21H16.666ZM19.3327 23.6666H20.9993V21.6666H19.3327V23.6666ZM20.0958 23.0952L26.0958 35.7452L27.9029 34.8881L21.9029 22.2381L20.0958 23.0952ZM26.1243 34.8325L23.8743 38.8992L25.6244 39.8674L27.8744 35.8008L26.1243 34.8325ZM23.8712 38.9049C22.296 41.7964 24.3645 45.3333 27.666 45.3333V43.3333C25.9009 43.3333 24.7693 41.4369 25.6275 39.8617L23.8712 38.9049ZM27.666 45.3333H45.9993V43.3333H27.666V45.3333ZM45.9993 45.3333C47.4683 45.3333 48.666 44.1356 48.666 42.6666H46.666C46.666 43.031 46.3637 43.3333 45.9993 43.3333V45.3333ZM48.666 42.6666C48.666 41.1977 47.4683 40 45.9993 40V42C46.3637 42 46.666 42.3023 46.666 42.6666H48.666ZM45.9993 40H27.666V42H45.9993V40ZM28.5422 41.4819L30.3756 38.1486L28.6231 37.1847L26.7898 40.5181L28.5422 41.4819ZM29.4993 38.6666H41.916V36.6666H29.4993V38.6666ZM41.916 38.6666C43.5373 38.6666 44.9702 37.7789 45.7095 36.4308L43.9559 35.4691C43.5618 36.1878 42.7947 36.6666 41.916 36.6666V38.6666ZM45.7083 36.433L51.675 25.6163L49.9237 24.6503L43.9571 35.467L45.7083 36.433ZM51.6716 25.6223C52.6631 23.8538 51.378 21.6666 49.3493 21.6666V23.6666C49.8541 23.6666 50.1689 24.2128 49.9271 24.6443L51.6716 25.6223ZM49.3493 21.6666H24.6827V23.6666H49.3493V21.6666ZM25.5882 22.2424L24.4716 19.859L22.6605 20.7076L23.7771 23.0909L25.5882 22.2424ZM24.4755 19.8676C24.0389 18.9126 23.0732 18.3333 22.066 18.3333V20.3333C22.3255 20.3333 22.5598 20.4874 22.6565 20.6991L24.4755 19.8676ZM22.066 18.3333H19.3327V20.3333H22.066V18.3333ZM19.3327 18.3333C17.8637 18.3333 16.666 19.531 16.666 21H18.666C18.666 20.6356 18.9683 20.3333 19.3327 20.3333V18.3333ZM44.3327 45C41.9406 45 40.016 46.9542 40.016 49.3333H42.016C42.016 48.0457 43.0581 47 44.3327 47V45ZM40.016 49.3333C40.016 51.7124 41.9406 53.6666 44.3327 53.6666V51.6666C43.0581 51.6666 42.016 50.6209 42.016 49.3333H40.016ZM44.3327 53.6666C46.7183 53.6666 48.666 51.7189 48.666 49.3333H46.666C46.666 50.6144 45.6137 51.6666 44.3327 51.6666V53.6666ZM48.666 49.3333C48.666 46.9477 46.7183 45 44.3327 45V47C45.6137 47 46.666 48.0523 46.666 49.3333H48.666Z" fill="#F08222"/>
</svg>
