<svg width="21" height="21" viewBox="0 0 21 21" fill="none" xmlns="http://www.w3.org/2000/svg">
<path d="M15.7846 4.96264C15.629 4.8066 15.4176 4.7189 15.1971 4.7189C14.9767 4.7189 14.7653 4.8066 14.6096 4.96264L10.5346 9.02931L6.45964 4.95431C6.30395 4.79827 6.09257 4.71057 5.87214 4.71057C5.65171 4.71057 5.44034 4.79827 5.28464 4.95431C4.95964 5.27931 4.95964 5.80431 5.28464 6.12931L9.35964 10.2043L5.28464 14.2793C4.95964 14.6043 4.95964 15.1293 5.28464 15.4543C5.60964 15.7793 6.13464 15.7793 6.45964 15.4543L10.5346 11.3793L14.6096 15.4543C14.9346 15.7793 15.4596 15.7793 15.7846 15.4543C16.1096 15.1293 16.1096 14.6043 15.7846 14.2793L11.7096 10.2043L15.7846 6.12931C16.1013 5.81264 16.1013 5.27931 15.7846 4.96264Z" fill="white"/>
</svg>
