<svg width="24" height="24" viewBox="0 0 24 24" fill="none" xmlns="http://www.w3.org/2000/svg">
<path fill-rule="evenodd" clip-rule="evenodd" d="M6.24246 8.89961C6.62114 10.0606 7.71264 10.8996 9.0001 10.8996C10.2876 10.8996 11.3791 10.0606 11.7577 8.89961C14.5052 8.89961 17.2526 8.89961 20.0001 8.89961C20.4972 8.89961 20.9001 8.49667 20.9001 7.99961C20.9001 7.50255 20.4972 7.09961 20.0001 7.09961C17.2526 7.09961 14.5052 7.09961 11.7577 7.09961C11.748 7.06925 11.761 7.10971 11.7577 7.09961C11.3791 5.93857 10.2876 5.09961 9.0001 5.09961C7.71264 5.09961 6.62114 5.93857 6.24246 7.09961C5.49501 7.09961 4.74755 7.09961 4.0001 7.09961C3.50304 7.09961 3.1001 7.50255 3.1001 7.99961C3.1001 8.49667 3.50304 8.89961 4.0001 8.89961C4.74755 8.89961 5.49501 8.89961 6.24246 8.89961ZM9.0001 6.89961C8.39258 6.89961 7.9001 7.3921 7.9001 7.99961C7.9001 8.60712 8.39258 9.09961 9.0001 9.09961C9.60761 9.09961 10.1001 8.60712 10.1001 7.99961C10.1001 7.3921 9.60761 6.89961 9.0001 6.89961Z" fill="#F08222"/>
<path fill-rule="evenodd" clip-rule="evenodd" d="M3.1001 15.9996C3.1001 15.5026 3.50304 15.0996 4.0001 15.0996C6.74755 15.0996 9.49501 15.0996 12.2425 15.0996C12.6211 13.9386 13.7126 13.0996 15.0001 13.0996C16.2876 13.0996 17.3791 13.9386 17.7577 15.0996C17.7577 15.0996 19.4787 15.0996 20.0001 15.0996C20.4972 15.0996 20.9001 15.5026 20.9001 15.9996C20.9001 16.4967 20.4972 16.8996 20.0001 16.8996C19.7779 16.8996 17.7577 16.8996 17.7577 16.8996C17.3791 18.0607 16.2876 18.8996 15.0001 18.8996C13.7126 18.8996 12.6211 18.0607 12.2425 16.8996C9.49501 16.8996 6.74755 16.8996 4.0001 16.8996C3.50304 16.8996 3.1001 16.4967 3.1001 15.9996ZM13.9001 15.9996C13.9001 15.3921 14.3926 14.8996 15.0001 14.8996C15.6076 14.8996 16.1001 15.3921 16.1001 15.9996C16.1001 16.6071 15.6076 17.0996 15.0001 17.0996C14.3926 17.0996 13.9001 16.6071 13.9001 15.9996Z" fill="#F08222"/>
</svg>
