<svg width="24" height="22" viewBox="0 0 24 22" fill="none" xmlns="http://www.w3.org/2000/svg">
<path fill-rule="evenodd" clip-rule="evenodd" d="M16.7825 0.500019C15.2066 0.5 14.1705 0.682355 12.9856 1.23471C12.6358 1.39778 12.3026 1.58745 11.9873 1.8033C11.688 1.602 11.3723 1.42329 11.0416 1.2675C9.8353 0.699274 8.74792 0.5 7.22727 0.5C3.05775 0.5 0 3.82041 0 8.11988C0 11.3419 1.85481 14.4023 5.26762 17.3256C7.03508 18.8395 9.28645 20.3342 10.9096 21.1348L12 21.6725L13.0904 21.1348C14.7135 20.3342 16.9649 18.8395 18.7324 17.3256C22.1452 14.4023 24 11.3419 24 8.11988C24 3.8632 20.9159 0.516322 16.7825 0.500019ZM21 8.11988C21 10.3158 19.5918 12.6393 16.7808 15.0472C15.2884 16.3254 13.3831 17.6063 12 18.3243C10.6169 17.6063 8.71156 16.3254 7.21925 15.0472C4.40823 12.6393 3 10.3158 3 8.11988C3 5.42458 4.77233 3.5 7.22727 3.5C8.33737 3.5 8.99812 3.62109 9.76319 3.98148C10.2048 4.18951 10.5924 4.46223 10.9269 4.80209L12.005 5.89747L13.0739 4.79295C13.4158 4.43952 13.8082 4.16122 14.2532 3.95378C14.9936 3.6086 15.6106 3.5 16.7765 3.50001C19.1975 3.50957 21 5.46561 21 8.11988Z" fill="#A0A9B5"/>
</svg>
