<svg width="16" height="16" viewBox="0 0 16 16" fill="none" xmlns="http://www.w3.org/2000/svg">
<path fill-rule="evenodd" clip-rule="evenodd" d="M11.1883 1.00001C10.1377 1 9.44702 1.12157 8.65709 1.48981C8.42388 1.59852 8.20175 1.72496 7.99153 1.86887C7.79197 1.73467 7.58156 1.61553 7.36107 1.51167C6.55687 1.13285 5.83195 1 4.81818 1C2.0385 1 0 3.21361 0 6.07992C0 8.22791 1.23654 10.2682 3.51175 12.2171C4.69005 13.2264 6.19097 14.2228 7.2731 14.7565L8 15.115L8.7269 14.7565C9.80903 14.2228 11.3099 13.2264 12.4883 12.2171C14.7635 10.2682 16 8.22791 16 6.07992C16 3.24213 13.9439 1.01088 11.1883 1.00001ZM14 6.07992C14 7.54385 13.0612 9.09289 11.1872 10.6981C10.1923 11.5503 8.92207 12.4042 8 12.8829C7.07793 12.4042 5.8077 11.5503 4.81283 10.6981C2.93882 9.09289 2 7.54385 2 6.07992C2 4.28305 3.18156 3 4.81818 3C5.55825 3 5.99874 3.08073 6.50879 3.32098C6.80322 3.45967 7.06157 3.64149 7.28459 3.86806L8.00336 4.59832L8.7159 3.86197C8.9439 3.62635 9.20545 3.44082 9.50212 3.30252C9.99576 3.0724 10.4071 3 11.1844 3.00001C12.7984 3.00638 14 4.31041 14 6.07992Z" fill="#A0A9B5"/>
</svg>
