<svg width="72" height="72" viewBox="0 0 72 72" fill="none" xmlns="http://www.w3.org/2000/svg">
<rect width="72" height="72" fill="#F08222" fill-opacity="0.1"/>
<path fill-rule="evenodd" clip-rule="evenodd" d="M41.8333 39.3333H40.5167L40.05 38.8833C41.6833 36.9833 42.6667 34.5167 42.6667 31.8333C42.6667 25.85 37.8167 21 31.8333 21C25.85 21 21 25.85 21 31.8333C21 37.8167 25.85 42.6667 31.8333 42.6667C34.5167 42.6667 36.9833 41.6833 38.8833 40.05L39.3333 40.5167V41.8333L47.6667 50.15L50.15 47.6667L41.8333 39.3333ZM31.8333 39.3333C27.6833 39.3333 24.3333 35.9833 24.3333 31.8333C24.3333 27.6833 27.6833 24.3333 31.8333 24.3333C35.9833 24.3333 39.3333 27.6833 39.3333 31.8333C39.3333 35.9833 35.9833 39.3333 31.8333 39.3333Z" fill="#F08222"/>
</svg>
