<svg width="20" height="20" viewBox="0 0 20 20" fill="none" xmlns="http://www.w3.org/2000/svg">
<path d="M9.51119 0.0115711C4.18615 0.262849 -0.0159917 4.66183 4.57517e-05 9.9497C0.00495934 11.5603 0.396954 13.0804 1.08854 14.4239L0.0268656 19.5357C-0.0305279 19.8123 0.220884 20.0544 0.49782 19.9893L5.54756 18.8026C6.84495 19.4438 8.30217 19.8139 9.84436 19.8373C15.287 19.9198 19.8252 15.6332 19.995 10.2364C20.1767 4.45144 15.3634 -0.264956 9.51119 0.0115711ZM15.5367 15.4111C14.0579 16.8779 12.0915 17.6858 10 17.6858C8.77545 17.6858 7.60287 17.4132 6.51506 16.8758L5.812 16.5283L2.71576 17.2558L3.36743 14.1178L3.02108 13.4447C2.45629 12.3477 2.16994 11.1615 2.16994 9.91897C2.16994 7.8443 2.98444 5.89399 4.46322 4.427C5.92884 2.97309 7.92724 2.15224 10.0002 2.15224C12.0914 2.15224 14.0578 2.96016 15.5366 4.427C17.0154 5.89385 17.8299 7.84437 17.8299 9.91876C17.83 11.975 17.0024 13.9572 15.5367 15.4111Z" fill="#F08222"/>
<path d="M14.8531 12.0702L12.916 11.5186C12.6615 11.4462 12.3872 11.5179 12.2016 11.7054L11.7279 12.184C11.5282 12.386 11.2252 12.4508 10.9608 12.3447C10.0445 11.9769 8.11693 10.2768 7.62496 9.42674C7.48274 9.18142 7.50628 8.8749 7.68072 8.65084L8.09414 8.12019C8.25615 7.91237 8.29027 7.633 8.1832 7.39269L7.36829 5.56444C7.17311 5.1266 6.60901 4.99906 6.24042 5.30828C5.69986 5.7619 5.05843 6.45094 4.98056 7.21452C4.84305 8.56074 5.42517 10.2576 7.62585 12.2952C10.1684 14.6495 12.2046 14.9602 13.5306 14.6418C14.2825 14.4612 14.8835 13.737 15.2625 13.144C15.5212 12.7394 15.3168 12.2024 14.8531 12.0702Z" fill="#F08222"/>
<path d="M16.8256 2.6693L15.309 4.21122C15.3862 4.28196 15.462 4.35288 15.5366 4.427C17.0154 5.89385 17.8299 7.84437 17.8299 9.91876C17.83 11.975 17.0024 13.9572 15.5367 15.4111C14.0579 16.8779 12.0915 17.6858 10 17.6858C8.77545 17.6858 7.60287 17.4132 6.51506 16.8758L5.812 16.5283L2.71576 17.2558L2.78075 16.9477L0.0390983 19.7348C0.0995628 19.9151 0.291108 20.0378 0.49782 19.9893L5.54756 18.8026C6.84495 19.4438 8.30217 19.8139 9.84436 19.8373C15.287 19.9198 19.8252 15.6332 19.995 10.2364C20.0889 7.2488 18.8512 4.54624 16.8256 2.6693Z" fill="#F08222"/>
<path d="M14.8531 12.0702L12.916 11.5186C12.6615 11.4462 12.3872 11.5179 12.2016 11.7054L11.7279 12.184C11.5282 12.386 11.2252 12.4508 10.9608 12.3447C10.4315 12.1322 9.56574 11.4752 8.83321 10.7943L7.48661 12.1634C7.53282 12.2072 7.57821 12.251 7.62585 12.2952C10.1684 14.6495 12.2046 14.9602 13.5306 14.6418C14.2825 14.4612 14.8835 13.737 15.2625 13.144C15.5212 12.7394 15.3168 12.2024 14.8531 12.0702Z" fill="#F08222"/>
</svg>
