<svg width="20" height="20" viewBox="0 0 20 20" fill="none" xmlns="http://www.w3.org/2000/svg">
<path d="M19.7644 18.5889L14.7948 13.6188C16.1491 11.9623 16.815 9.84866 16.6547 7.71497C16.4944 5.58128 15.5202 3.59083 13.9336 2.15534C12.347 0.719841 10.2694 -0.0508742 8.13061 0.00260835C5.99177 0.0560909 3.95531 0.929679 2.44245 2.44268C0.929593 3.95568 0.0560857 5.99233 0.00260811 8.13136C-0.0508695 10.2704 0.719775 12.3482 2.15514 13.9349C3.5905 15.5216 5.58076 16.4959 7.71426 16.6562C9.84775 16.8165 11.9612 16.1506 13.6176 14.7962L18.5872 19.7663C18.7442 19.9179 18.9545 20.0019 19.1728 20C19.3911 19.9981 19.5999 19.9105 19.7543 19.7561C19.9087 19.6017 19.9962 19.3929 19.9981 19.1746C20 18.9563 19.9161 18.7459 19.7644 18.5889ZM8.35237 15.0143C7.03503 15.0143 5.74728 14.6237 4.65195 13.8917C3.55663 13.1598 2.70292 12.1194 2.1988 10.9023C1.69468 9.6851 1.56277 8.34575 1.81977 7.05361C2.07677 5.76146 2.71113 4.57455 3.64263 3.64297C4.57413 2.71138 5.76093 2.07697 7.05296 1.81994C8.34498 1.56292 9.6842 1.69483 10.9013 2.199C12.1183 2.70317 13.1586 3.55695 13.8904 4.65238C14.6223 5.74781 15.0129 7.03568 15.0129 8.35314C15.011 10.1192 14.3086 11.8123 13.0599 13.0611C11.8112 14.3099 10.1183 15.0124 8.35237 15.0143Z" fill="#8090A3"/>
</svg>
