<svg width="24" height="24" viewBox="0 0 24 24" fill="none" xmlns="http://www.w3.org/2000/svg">
<path fill-rule="evenodd" clip-rule="evenodd" d="M14.2 5.4C14.2 5.71607 14.2333 6.02435 14.2967 6.32153L8.71845 9.11063C7.91182 8.18499 6.72422 7.6 5.4 7.6C2.96995 7.6 1 9.56995 1 12C1 14.4301 2.96995 16.4 5.4 16.4C6.72435 16.4 7.91205 15.8149 8.71869 14.8891L14.2967 17.6781C14.2334 17.9754 14.2 18.2838 14.2 18.6C14.2 21.0301 16.1699 23 18.6 23C21.0301 23 23 21.0301 23 18.6C23 16.1699 21.0301 14.2 18.6 14.2C17.2757 14.2 16.0881 14.785 15.2814 15.7108L9.7033 12.9217C9.76666 12.6245 9.8 12.3161 9.8 12C9.8 11.6837 9.76663 11.3753 9.70323 11.0779L15.2812 8.28894C16.0878 9.21484 17.2756 9.8 18.6 9.8C21.0301 9.8 23 7.83005 23 5.4C23 2.96995 21.0301 1 18.6 1C16.1699 1 14.2 2.96995 14.2 5.4ZM7.6 12C7.6 13.215 6.61503 14.2 5.4 14.2C4.18497 14.2 3.2 13.215 3.2 12C3.2 10.785 4.18497 9.8 5.4 9.8C6.61503 9.8 7.6 10.785 7.6 12ZM18.6 7.6C19.815 7.6 20.8 6.61503 20.8 5.4C20.8 4.18497 19.815 3.2 18.6 3.2C17.385 3.2 16.4 4.18497 16.4 5.4C16.4 6.61503 17.385 7.6 18.6 7.6ZM20.8 18.6C20.8 19.815 19.815 20.8 18.6 20.8C17.385 20.8 16.4 19.815 16.4 18.6C16.4 17.385 17.385 16.4 18.6 16.4C19.815 16.4 20.8 17.385 20.8 18.6Z" fill="#A0A9B5"/>
</svg>
