<svg width="206" height="82" viewBox="0 0 206 82" fill="none" xmlns="http://www.w3.org/2000/svg">
<rect x="40.5381" width="160" height="64" fill="#FFD100"/>
<rect x="40.5381" width="160" height="64" fill="black" fill-opacity="0.3"/>
<rect x="0.591797" y="17.8369" width="200" height="64" transform="rotate(-5 0.591797 17.8369)" fill="#FFD100"/>
<path d="M39.843 59.709C39.227 59.709 38.754 59.544 38.424 59.214C38.116 58.884 37.962 58.411 37.962 57.795V52.581C37.962 51.283 38.622 50.634 39.942 50.634H42.186L39.678 51.294C40.932 50.04 41.856 48.225 42.45 45.849C43.066 43.473 43.374 40.459 43.374 36.807V32.979C43.374 32.253 43.561 31.703 43.935 31.329C44.331 30.933 44.892 30.735 45.618 30.735H57.597C58.323 30.735 58.873 30.933 59.247 31.329C59.643 31.703 59.841 32.253 59.841 32.979V52.218L58.257 50.634H61.161C61.799 50.634 62.283 50.799 62.613 51.129C62.965 51.459 63.141 51.943 63.141 52.581V57.795C63.141 59.071 62.525 59.709 61.293 59.709C60.677 59.709 60.204 59.544 59.874 59.214C59.544 58.884 59.379 58.411 59.379 57.795V54H41.724V57.795C41.724 59.071 41.097 59.709 39.843 59.709ZM44.562 50.634H55.584V34.101H47.301V37.203C47.301 40.371 47.07 43.044 46.608 45.222C46.168 47.4 45.486 49.204 44.562 50.634ZM72.0963 54.33C70.4243 54.33 68.9723 53.989 67.7403 53.307C66.5083 52.625 65.5513 51.657 64.8693 50.403C64.1873 49.127 63.8463 47.631 63.8463 45.915C63.8463 44.617 64.0333 43.462 64.4073 42.45C64.8033 41.416 65.3643 40.536 66.0903 39.81C66.8163 39.062 67.6853 38.501 68.6973 38.127C69.7093 37.731 70.8423 37.533 72.0963 37.533C73.7683 37.533 75.2203 37.874 76.4523 38.556C77.6843 39.238 78.6413 40.206 79.3233 41.46C80.0053 42.714 80.3463 44.199 80.3463 45.915C80.3463 47.213 80.1483 48.379 79.7523 49.413C79.3783 50.447 78.8283 51.338 78.1023 52.086C77.3763 52.812 76.5073 53.373 75.4953 53.769C74.4833 54.143 73.3503 54.33 72.0963 54.33ZM72.0963 51.195C72.9103 51.195 73.6253 50.997 74.2413 50.601C74.8573 50.205 75.3303 49.622 75.6603 48.852C76.0123 48.06 76.1883 47.081 76.1883 45.915C76.1883 44.155 75.8143 42.846 75.0663 41.988C74.3183 41.108 73.3283 40.668 72.0963 40.668C71.2823 40.668 70.5673 40.866 69.9513 41.262C69.3353 41.636 68.8513 42.219 68.4993 43.011C68.1693 43.781 68.0043 44.749 68.0043 45.915C68.0043 47.653 68.3783 48.973 69.1263 49.875C69.8743 50.755 70.8643 51.195 72.0963 51.195ZM91.4482 46.806C90.9642 46.806 90.5572 46.652 90.2272 46.344C89.9192 46.014 89.7652 45.618 89.7652 45.156C89.7652 44.672 89.9192 44.276 90.2272 43.968C90.5572 43.66 90.9642 43.506 91.4482 43.506H98.4772C98.9392 43.506 99.3242 43.66 99.6322 43.968C99.9622 44.276 100.127 44.672 100.127 45.156C100.127 45.618 99.9622 46.014 99.6322 46.344C99.3242 46.652 98.9392 46.806 98.4772 46.806H91.4482ZM110.692 54.33C109.526 54.33 108.338 54.176 107.128 53.868C105.918 53.56 104.807 53.087 103.795 52.449C103.377 52.185 103.091 51.877 102.937 51.525C102.805 51.151 102.772 50.788 102.838 50.436C102.926 50.062 103.091 49.754 103.333 49.512C103.597 49.248 103.905 49.094 104.257 49.05C104.631 49.006 105.038 49.105 105.478 49.347C106.292 49.809 107.117 50.161 107.953 50.403C108.789 50.645 109.68 50.766 110.626 50.766C111.55 50.766 112.342 50.601 113.002 50.271C113.662 49.941 114.168 49.479 114.52 48.885C114.872 48.291 115.048 47.598 115.048 46.806C115.048 45.574 114.674 44.584 113.926 43.836C113.178 43.066 112.155 42.681 110.857 42.681C110.153 42.681 109.471 42.802 108.811 43.044C108.151 43.264 107.502 43.66 106.864 44.232C106.666 44.408 106.413 44.584 106.105 44.76C105.797 44.914 105.467 44.991 105.115 44.991C104.565 44.991 104.147 44.848 103.861 44.562C103.575 44.276 103.432 43.88 103.432 43.374V32.583C103.432 31.989 103.586 31.538 103.894 31.23C104.224 30.9 104.686 30.735 105.28 30.735H116.137C116.731 30.735 117.182 30.889 117.49 31.197C117.82 31.483 117.985 31.912 117.985 32.484C117.985 33.034 117.82 33.463 117.49 33.771C117.182 34.079 116.731 34.233 116.137 34.233H107.557V41.625H106.468C107.04 40.855 107.799 40.261 108.745 39.843C109.691 39.425 110.725 39.216 111.847 39.216C113.321 39.216 114.597 39.535 115.675 40.173C116.775 40.789 117.622 41.658 118.216 42.78C118.832 43.88 119.14 45.167 119.14 46.641C119.14 48.159 118.799 49.501 118.117 50.667C117.435 51.811 116.456 52.713 115.18 53.373C113.926 54.011 112.43 54.33 110.692 54.33ZM128.781 54.33C126.031 54.33 123.93 53.296 122.478 51.228C121.026 49.138 120.3 46.168 120.3 42.318C120.3 39.722 120.619 37.544 121.257 35.784C121.917 34.002 122.874 32.66 124.128 31.758C125.404 30.856 126.955 30.405 128.781 30.405C131.553 30.405 133.654 31.417 135.084 33.441C136.536 35.465 137.262 38.413 137.262 42.285C137.262 44.859 136.932 47.048 136.272 48.852C135.634 50.634 134.688 51.998 133.434 52.944C132.18 53.868 130.629 54.33 128.781 54.33ZM128.781 50.865C130.277 50.865 131.377 50.172 132.081 48.786C132.807 47.4 133.17 45.233 133.17 42.285C133.17 39.337 132.807 37.203 132.081 35.883C131.377 34.541 130.277 33.87 128.781 33.87C127.307 33.87 126.207 34.541 125.481 35.883C124.755 37.203 124.392 39.337 124.392 42.285C124.392 45.233 124.755 47.4 125.481 48.786C126.207 50.172 127.307 50.865 128.781 50.865ZM148.025 53.736C147.805 54.132 147.53 54.385 147.2 54.495C146.892 54.627 146.573 54.649 146.243 54.561C145.935 54.495 145.671 54.341 145.451 54.099C145.231 53.879 145.099 53.604 145.055 53.274C145.011 52.922 145.099 52.548 145.319 52.152L157.496 31.032C157.716 30.636 157.98 30.372 158.288 30.24C158.618 30.108 158.937 30.086 159.245 30.174C159.553 30.24 159.817 30.394 160.037 30.636C160.257 30.878 160.389 31.175 160.433 31.527C160.499 31.857 160.422 32.209 160.202 32.583L148.025 53.736ZM144.494 44.628C142.646 44.628 141.205 43.99 140.171 42.714C139.137 41.438 138.62 39.7 138.62 37.5C138.62 36.026 138.851 34.761 139.313 33.705C139.775 32.649 140.446 31.835 141.326 31.263C142.206 30.691 143.262 30.405 144.494 30.405C146.342 30.405 147.783 31.043 148.817 32.319C149.851 33.573 150.368 35.3 150.368 37.5C150.368 38.974 150.137 40.25 149.675 41.328C149.213 42.384 148.542 43.198 147.662 43.77C146.782 44.342 145.726 44.628 144.494 44.628ZM144.494 41.856C145.022 41.856 145.473 41.702 145.847 41.394C146.221 41.064 146.507 40.58 146.705 39.942C146.903 39.304 147.002 38.49 147.002 37.5C147.002 36.026 146.782 34.937 146.342 34.233C145.902 33.529 145.286 33.177 144.494 33.177C143.966 33.177 143.515 33.331 143.141 33.639C142.767 33.947 142.481 34.42 142.283 35.058C142.085 35.696 141.986 36.51 141.986 37.5C141.986 38.996 142.206 40.096 142.646 40.8C143.086 41.504 143.702 41.856 144.494 41.856ZM161.06 54.33C159.212 54.33 157.771 53.692 156.737 52.416C155.703 51.14 155.186 49.402 155.186 47.202C155.186 45.728 155.417 44.463 155.879 43.407C156.341 42.351 157.012 41.537 157.892 40.965C158.772 40.393 159.828 40.107 161.06 40.107C162.908 40.107 164.349 40.745 165.383 42.021C166.417 43.275 166.934 45.002 166.934 47.202C166.934 48.676 166.703 49.952 166.241 51.03C165.779 52.086 165.108 52.9 164.228 53.472C163.348 54.044 162.292 54.33 161.06 54.33ZM161.06 51.558C161.588 51.558 162.039 51.404 162.413 51.096C162.787 50.788 163.073 50.315 163.271 49.677C163.469 49.017 163.568 48.192 163.568 47.202C163.568 45.728 163.348 44.639 162.908 43.935C162.468 43.231 161.852 42.879 161.06 42.879C160.532 42.879 160.081 43.033 159.707 43.341C159.333 43.649 159.047 44.122 158.849 44.76C158.651 45.398 158.552 46.212 158.552 47.202C158.552 48.698 158.772 49.798 159.212 50.502C159.652 51.206 160.268 51.558 161.06 51.558Z" fill="#3A3A3A"/>
</svg>
