<svg width="32" height="32" viewBox="0 0 32 32" fill="none" xmlns="http://www.w3.org/2000/svg">
<path d="M32.0008 16C32.0008 24.8362 24.837 32 16 32H15.97C7.14721 31.9834 0 24.8244 0 16C0 7.17559 7.14721 0.0157705 15.97 0H16C24.837 0 32.0008 7.1614 32.0008 16Z" fill="black"/>
<path d="M15.97 0V32C7.14721 31.9834 0 24.8244 0 16C0 7.17559 7.14721 0.0157705 15.97 0Z" fill="#0C0C0C"/>
<path d="M24.7063 11.5708L24.6866 14.8487C24.0478 14.8409 23.4124 14.7556 22.7941 14.5948C21.8404 14.3456 20.9408 13.9225 20.1407 13.3466C20.1407 13.6817 20.1455 14.1816 20.1455 14.7896C20.1455 15.5986 20.1455 16.0583 20.1407 16.5464C20.1266 19.5617 20.2015 20.1452 19.9365 21.3375C19.8814 21.625 19.806 21.9083 19.711 22.1852C19.2016 23.6045 18.0914 24.7416 16.9598 25.3464C16.6441 25.5142 16.3126 25.6508 15.9702 25.754C13.8317 26.4022 11.2619 25.8329 9.93563 24.2558L9.92696 24.2464L9.91671 24.233C8.7899 22.8735 8.54388 20.754 8.52023 20.2115C8.52023 20.1421 8.5155 20.0743 8.5155 20.0743C8.49814 19.3332 8.60474 18.5944 8.83091 17.8885C9.05958 17.1583 9.81262 15.6341 11.504 14.7083C12.5589 14.1401 13.7629 13.9097 14.953 14.0484L14.9144 17.3657C14.8474 17.3483 13.2269 16.9643 12.1632 18.0683C11.1996 19.0681 11.2619 20.6791 11.9456 21.5914C11.9819 21.6403 12.0205 21.6876 12.0607 21.7318C12.4431 22.1584 12.9281 22.3184 13.2553 22.4304C13.6892 22.5734 14.1447 22.6401 14.6013 22.6275C15.0906 22.6199 15.5665 22.467 15.9687 22.1883C17.0805 21.4329 17.2303 20.0877 17.2358 20.0112C17.2221 15.6806 17.2093 11.35 17.1972 7.01942V7.01548L19.2813 6.97842H19.3152L19.6172 6.9729C19.8399 7.77432 20.2173 8.52439 20.7282 9.18078C20.8892 9.38608 21.063 9.58097 21.2486 9.76429C21.95 10.4469 22.7924 10.9675 23.7167 11.2893H23.723C24.0437 11.4065 24.3723 11.5005 24.7063 11.5708Z" fill="#FD2854"/>
<path d="M23.764 13.0541H23.7577C22.6354 13.2339 21.4864 13.1467 20.4041 12.7994C19.6484 12.5537 18.9389 12.1835 18.3051 11.7041C18.6851 14.0015 18.6851 16.3458 18.3051 18.6432C17.8548 21.3431 17.5725 23.0353 16.0656 24.1179C16.0341 24.1408 16.0018 24.1637 15.9694 24.1849C13.8885 25.594 10.9812 24.8946 9.91592 24.2315L9.90015 24.222L9.87018 24.2031C9.51904 23.9705 9.18967 23.7065 8.8861 23.4146C8.34192 22.8867 7.90769 22.2563 7.60845 21.5597C7.30921 20.8631 7.15091 20.1141 7.14267 19.356C7.12242 18.5708 7.25277 17.7889 7.52668 17.0527C7.7041 16.5796 8.36331 14.8969 10.1998 13.8726C11.3758 13.2278 12.7346 12.9978 14.0573 13.2197C14.052 13.4825 14.047 13.7454 14.0423 14.0082V14.0137L14.0115 15.6775C13.436 15.5419 12.841 15.5088 12.2539 15.5797C11.7808 15.6381 11.3171 15.6925 10.8243 16.0024C10.1931 16.4087 9.7464 17.0462 9.58001 17.7782C9.47471 18.1327 9.45311 18.5068 9.51692 18.8711C9.53585 18.9751 9.67463 19.6982 10.2581 20.2171C10.4545 20.3913 10.5381 20.3984 10.8243 20.6657C11.0766 20.9023 11.1397 21.0159 11.3708 21.2122C11.3708 21.2122 11.4275 21.2603 11.5206 21.3281C11.5265 21.3333 11.5329 21.338 11.5395 21.3423C11.6667 21.4354 11.8003 21.5194 11.9393 21.5938C12.5173 21.8966 13.5518 21.929 14.3104 21.5607C15.3599 21.0505 15.9324 19.8772 15.93 19.1802C15.9174 14.848 15.9045 10.5161 15.8914 6.18445H15.9639L19.1827 6.16553C19.1804 6.4166 19.2152 6.66664 19.286 6.90753C19.2939 6.93355 19.3018 6.958 19.3104 6.98638C19.3191 7.01477 19.3246 7.02818 19.3317 7.04789C19.3817 7.17893 19.4393 7.3069 19.5044 7.43111L19.5494 7.52179V7.52889C19.5486 7.53093 19.5486 7.53316 19.5494 7.5352L19.5564 7.55018L19.5635 7.56437C19.5678 7.57355 19.5726 7.58249 19.5777 7.59118C19.5825 7.60143 19.588 7.61169 19.5935 7.62194C19.6235 7.6795 19.6645 7.7552 19.711 7.84036C19.7402 7.89319 19.7709 7.94602 19.8025 7.99806L19.8364 8.05405C19.8529 8.08244 19.8703 8.11082 19.8876 8.13842L19.9507 8.23856C20.1959 8.62573 20.6265 9.27784 21.2368 9.77067C22.0947 10.463 23.0804 10.6586 23.6986 10.7169C23.7025 10.9109 23.7073 11.1049 23.7112 11.2988C23.7343 11.8844 23.7519 12.4695 23.764 13.0541Z" fill="#24F6FA"/>
<path d="M23.7741 13.9805C22.1493 14.0402 20.554 13.535 19.2597 12.5509V19.49C19.244 19.7557 19.0114 22.6867 16.3635 24.3C16.2326 24.3788 16.1009 24.4522 15.9692 24.52C13.4783 25.7911 11.0441 24.7952 10.8036 24.6919C10.5645 24.6137 10.3353 24.5079 10.1207 24.3765C10.0537 24.3347 9.98825 24.2913 9.92595 24.2464L9.86997 24.2046C8.2456 22.9713 8.17858 20.4591 8.16833 20.0885C8.15097 19.3474 8.25758 18.6086 8.48374 17.9027C8.75184 17.0471 9.55219 15.6049 11.1568 14.7225C12.0423 14.2407 13.0373 13.9962 14.0452 14.0129V14.0184C14.0321 14.8516 14.0189 15.6851 14.0058 16.5188C13.8363 16.4731 12.797 16.2113 11.7814 16.8508C11.1502 17.2571 10.7035 17.8946 10.5371 18.6265C10.4375 18.9818 10.416 19.3543 10.474 19.7187C10.564 20.1685 10.7763 20.5848 11.0875 20.9219C11.2183 21.0726 11.3644 21.2092 11.5235 21.3296C11.5295 21.3348 11.5358 21.3395 11.5424 21.3438C11.6674 21.4402 11.8012 21.5244 11.9422 21.5953L11.9469 21.5993C12.2287 22.0248 12.6352 22.3527 13.1106 22.5382C13.5861 22.7237 14.1072 22.7577 14.6027 22.6354C14.8336 22.5872 15.0578 22.5115 15.2706 22.4099C15.5283 22.2873 15.7645 22.1238 15.97 21.9257C16.768 21.1585 16.8847 20.0971 16.8902 20.0333L16.8555 7.03125L17.2025 7.02416L19.2866 6.98315H19.3165C19.3244 7.00366 19.3331 7.02416 19.3418 7.04466C19.3899 7.16057 19.4474 7.2891 19.5144 7.42788L19.5594 7.51856V7.52566C19.5587 7.5277 19.5587 7.52993 19.5594 7.53197L19.5665 7.54695L19.5736 7.56114C19.5779 7.57032 19.5826 7.57926 19.5878 7.58795C19.5925 7.59821 19.598 7.60846 19.6035 7.61871C19.6398 7.68967 19.6824 7.76301 19.721 7.83713C19.7502 7.88996 19.781 7.94279 19.8125 7.99483L19.8464 8.05082L19.8977 8.13519L19.9607 8.23534C20.3214 8.79946 20.7537 9.31446 21.2468 9.76744C21.9664 10.4263 22.8037 10.9436 23.7149 11.2925H23.7212C23.7315 11.8768 23.7417 12.4626 23.7512 13.0469L23.7741 13.9805Z" fill="white"/>
<path opacity="0.17" d="M24.7063 11.5709L24.6866 14.8488C24.0478 14.841 23.4124 14.7557 22.7941 14.5949C21.8404 14.3457 20.9408 13.9225 20.1407 13.3466C20.1407 13.6818 20.1455 14.1817 20.1455 14.7896C20.1455 15.5987 20.1455 16.0584 20.1407 16.5465C20.1265 19.5618 20.2015 20.1453 19.9365 21.3376C19.8814 21.6251 19.806 21.9083 19.711 22.1852C19.2016 23.6046 18.0914 24.7416 16.9598 25.3464C16.644 25.5143 16.3126 25.6509 15.9702 25.7541V6.18445L19.189 6.16553C19.1867 6.4166 19.2215 6.66664 19.2923 6.90753C19.3002 6.93355 19.308 6.958 19.3167 6.98638L19.6187 6.98086C19.8414 7.78228 20.2189 8.53235 20.7298 9.18874C20.8907 9.39404 21.0646 9.58894 21.2502 9.77225C22.1081 10.4646 23.0938 10.6601 23.712 10.7185C23.7159 10.9125 23.7206 11.1064 23.7246 11.3004C24.045 11.4138 24.3731 11.5042 24.7063 11.5709Z" fill="black"/>
</svg>
