<svg width="48" height="48" viewBox="0 0 48 48" fill="none" xmlns="http://www.w3.org/2000/svg">
<g clip-path="url(#clip0_1285_108086)">
<rect width="48" height="48" fill="#F08222" fill-opacity="0.1"/>
<path d="M29.0381 20.0989C28.8492 18.9761 28.2932 17.9514 27.443 17.1738C26.4982 16.309 25.27 15.833 23.991 15.833C23.0026 15.833 22.0397 16.1164 21.2149 16.6506C20.5281 17.0939 19.9576 17.6934 19.5543 18.3984C19.3799 18.3657 19.1982 18.3475 19.0165 18.3475C17.4722 18.3475 16.2149 19.6048 16.2149 21.1491C16.2149 21.3489 16.2367 21.5415 16.2731 21.7304C15.2738 22.4572 14.667 23.6272 14.667 24.8736C14.667 25.8801 15.0413 26.8576 15.7244 27.6315C16.4257 28.4237 17.3523 28.8924 18.3406 28.9469C18.3515 28.9469 18.3588 28.9469 18.3697 28.9469H21.4947C21.7672 28.9469 21.9852 28.7289 21.9852 28.4564C21.9852 28.1838 21.7672 27.9658 21.4947 27.9658H18.3842C16.8981 27.875 15.6481 26.4615 15.6481 24.8699C15.6481 23.8416 16.2004 22.8823 17.0906 22.3627C17.2978 22.2428 17.385 21.9921 17.305 21.7668C17.2324 21.5706 17.196 21.3634 17.196 21.1418C17.196 20.1389 18.0136 19.3213 19.0165 19.3213C19.2309 19.3213 19.4416 19.3577 19.6378 19.4303C19.8777 19.5175 20.1429 19.4085 20.2519 19.1796C20.9314 17.737 22.3994 16.8068 23.9946 16.8068C26.1385 16.8068 27.9081 18.4129 28.1116 20.5422C28.1334 20.7639 28.3005 20.9419 28.5185 20.9783C30.1355 21.2544 31.3564 22.7479 31.3564 24.4521C31.3564 26.258 29.9357 27.8277 28.1842 27.9622H25.5062C25.2337 27.9622 25.0157 28.1802 25.0157 28.4527C25.0157 28.7253 25.2337 28.9433 25.5062 28.9433H28.2024C28.2133 28.9433 28.2242 28.9433 28.2387 28.9433C29.347 28.8633 30.3826 28.3546 31.1529 27.5043C31.9196 26.6613 32.3375 25.5785 32.3375 24.4521C32.3339 22.4136 30.9422 20.6004 29.0381 20.0989Z" fill="#A0A9B5"/>
<path d="M26.447 25.3388C26.6396 25.1462 26.6396 24.8374 26.447 24.6448L23.8489 22.0467C23.7581 21.9559 23.6309 21.9014 23.5037 21.9014C23.3765 21.9014 23.2494 21.9522 23.1585 22.0467L20.5605 24.6448C20.3679 24.8374 20.3679 25.1462 20.5605 25.3388C20.6549 25.4333 20.7821 25.4842 20.9057 25.4842C21.0292 25.4842 21.1564 25.4369 21.2509 25.3388L23.0132 23.5765V31.6759C23.0132 31.9485 23.2312 32.1665 23.5037 32.1665C23.7762 32.1665 23.9943 31.9485 23.9943 31.6759V23.5765L25.7566 25.3388C25.9455 25.5314 26.2544 25.5314 26.447 25.3388Z" fill="#A0A9B5"/>
</g>
<defs>
<clipPath id="clip0_1285_108086">
<rect width="48" height="48" rx="24" fill="white"/>
</clipPath>
</defs>
</svg>
