<svg width="48" height="48" viewBox="0 0 48 48" fill="none" xmlns="http://www.w3.org/2000/svg">
<g clip-path="url(#clip0_1285_108172)">
<rect width="48" height="48" fill="#F08222" fill-opacity="0.1"/>
<path fill-rule="evenodd" clip-rule="evenodd" d="M19.3331 16.2221C18.6888 16.2221 18.1664 16.7444 18.1664 17.3888V30.611C18.1664 31.2553 18.6888 31.7777 19.3331 31.7777H28.6664C29.3108 31.7777 29.8331 31.2553 29.8331 30.611V22.4443H25.5553C24.4815 22.4443 23.6109 21.5738 23.6109 20.4999V16.2221H19.3331ZM24.3887 16.7721L29.2831 21.6666H25.5553C24.911 21.6666 24.3887 21.1442 24.3887 20.4999V16.7721ZM17.3887 17.3888C17.3887 16.3149 18.2592 15.4443 19.3331 15.4443H23.9998C24.1029 15.4443 24.2018 15.4853 24.2748 15.5582L30.497 21.7805C30.5699 21.8534 30.6109 21.9523 30.6109 22.0554V30.611C30.6109 31.6849 29.7403 32.5554 28.6664 32.5554H19.3331C18.2592 32.5554 17.3887 31.6849 17.3887 30.611V17.3888Z" fill="#F08222"/>
<path d="M20.4998 26.7221C20.4998 26.5073 20.6739 26.3332 20.8887 26.3332H24.7776C24.9923 26.3332 25.1664 26.5073 25.1664 26.7221C25.1664 26.9369 24.9923 27.111 24.7776 27.111H20.8887C20.6739 27.111 20.4998 26.9369 20.4998 26.7221Z" fill="#F08222"/>
<path d="M20.4998 29.0554C20.4998 28.8407 20.6739 28.6666 20.8887 28.6666H27.1109C27.3257 28.6666 27.4998 28.8407 27.4998 29.0554C27.4998 29.2702 27.3257 29.4443 27.1109 29.4443H20.8887C20.6739 29.4443 20.4998 29.2702 20.4998 29.0554Z" fill="#F08222"/>
</g>
<defs>
<clipPath id="clip0_1285_108172">
<rect width="48" height="48" rx="24" fill="white"/>
</clipPath>
</defs>
</svg>
