<svg width="32" height="32" viewBox="0 0 32 32" fill="none" xmlns="http://www.w3.org/2000/svg">
<g clip-path="url(#clip0_1031_116808)">
<path d="M31.5 16C31.5 24.5604 24.5604 31.5 16 31.5C7.43959 31.5 0.5 24.5604 0.5 16C0.5 7.43959 7.43959 0.5 16 0.5C24.5604 0.5 31.5 7.43959 31.5 16Z" stroke="#DFE1E9"/>
<path d="M9.99673 20C9.78873 20 9.62873 19.948 9.51673 19.844C9.41273 19.732 9.36073 19.572 9.36073 19.364V12.176C9.36073 11.968 9.41273 11.812 9.51673 11.708C9.62873 11.596 9.78873 11.54 9.99673 11.54H14.3887C14.5487 11.54 14.6687 11.58 14.7487 11.66C14.8367 11.74 14.8807 11.856 14.8807 12.008C14.8807 12.168 14.8367 12.292 14.7487 12.38C14.6687 12.46 14.5487 12.5 14.3887 12.5H10.4887V15.224H14.1367C14.2967 15.224 14.4167 15.268 14.4967 15.356C14.5847 15.436 14.6287 15.552 14.6287 15.704C14.6287 15.864 14.5847 15.984 14.4967 16.064C14.4167 16.144 14.2967 16.184 14.1367 16.184H10.4887V19.04H14.3887C14.5487 19.04 14.6687 19.08 14.7487 19.16C14.8367 19.24 14.8807 19.36 14.8807 19.52C14.8807 19.68 14.8367 19.8 14.7487 19.88C14.6687 19.96 14.5487 20 14.3887 20H9.99673ZM17.4034 20.084C17.2114 20.084 17.0634 20.032 16.9594 19.928C16.8634 19.816 16.8154 19.668 16.8154 19.484V12.056C16.8154 11.856 16.8634 11.708 16.9594 11.612C17.0634 11.508 17.2114 11.456 17.4034 11.456C17.5874 11.456 17.7314 11.508 17.8354 11.612C17.9394 11.708 17.9914 11.856 17.9914 12.056V15.248H19.5394L19.2514 15.44L21.6394 11.756C21.7274 11.628 21.8274 11.544 21.9394 11.504C22.0594 11.456 22.1754 11.448 22.2874 11.48C22.3994 11.504 22.4954 11.556 22.5754 11.636C22.6554 11.716 22.6994 11.816 22.7074 11.936C22.7154 12.048 22.6754 12.168 22.5874 12.296L20.3674 15.656L19.9114 15.296C20.4074 15.36 20.8314 15.54 21.1834 15.836C21.5354 16.124 21.8394 16.524 22.0954 17.036L23.1874 19.256C23.2594 19.408 23.2794 19.544 23.2474 19.664C23.2234 19.784 23.1634 19.88 23.0674 19.952C22.9794 20.024 22.8754 20.064 22.7554 20.072C22.6354 20.088 22.5154 20.064 22.3954 20C22.2834 19.944 22.1954 19.844 22.1314 19.7L21.0994 17.54C20.8834 17.068 20.6274 16.736 20.3314 16.544C20.0434 16.344 19.6874 16.244 19.2634 16.244H17.9914V19.484C17.9914 19.668 17.9394 19.816 17.8354 19.928C17.7394 20.032 17.5954 20.084 17.4034 20.084Z" fill="#A0A9B5"/>
</g>
<defs>
<clipPath id="clip0_1031_116808">
<rect width="32" height="32" fill="white"/>
</clipPath>
</defs>
</svg>
