<svg width="14" height="13" viewBox="0 0 14 13" fill="none" xmlns="http://www.w3.org/2000/svg">
<path d="M13.3421 8.67004L11.5137 6.84167C11.4627 6.7874 11.4014 6.74393 11.3333 6.71384C11.2652 6.68374 11.1918 6.66764 11.1173 6.66648C11.0429 6.66533 10.969 6.67914 10.9 6.70711C10.831 6.73507 10.7683 6.77662 10.7157 6.82928C10.6631 6.88194 10.6216 6.94463 10.5937 7.01364C10.5658 7.08265 10.552 7.15657 10.5532 7.231C10.5544 7.30544 10.5706 7.37887 10.6007 7.44694C10.6309 7.515 10.6744 7.57632 10.7287 7.62724L12.0009 8.90171C11.3093 8.90328 10.6244 8.76646 9.98646 8.4993C9.34854 8.23215 8.77051 7.84006 8.28642 7.34612C8.23266 7.29662 8.16951 7.25842 8.1007 7.23379C8.0319 7.20916 7.95885 7.19861 7.88589 7.20275C7.81293 7.2069 7.74154 7.22566 7.67597 7.25792C7.6104 7.29018 7.55198 7.33529 7.50418 7.39057L7.49696 7.40168C7.40355 7.51034 7.35574 7.65088 7.36351 7.79395C7.37127 7.93702 7.43401 8.07156 7.53863 8.16947C8.12185 8.75931 8.81735 9.22632 9.58405 9.54293C10.3508 9.85953 11.1731 10.0193 12.0026 10.0128L10.7287 11.2867C10.6706 11.3367 10.6235 11.3981 10.5903 11.4671C10.5571 11.5361 10.5386 11.6112 10.5358 11.6877C10.533 11.7642 10.546 11.8405 10.5741 11.9117C10.6022 11.9829 10.6447 12.0476 10.699 12.1016C10.7532 12.1557 10.818 12.1979 10.8894 12.2257C10.9608 12.2534 11.0371 12.2662 11.1136 12.2631C11.1901 12.2599 11.2651 12.241 11.334 12.2075C11.4028 12.1741 11.464 12.1267 11.5137 12.0684L13.3421 10.2401C13.55 10.0317 13.6668 9.74941 13.6668 9.45505C13.6668 9.16069 13.55 8.87836 13.3421 8.67004Z" fill="#F08222"/>
<path d="M12.0009 3.34605L10.7287 4.6183C10.7179 4.63292 10.7078 4.64813 10.6987 4.66385C10.609 4.77316 10.5648 4.91274 10.5752 5.05373C10.5855 5.19472 10.6497 5.32634 10.7543 5.42138C10.859 5.51641 10.9962 5.56759 11.1375 5.56433C11.2788 5.56107 11.4135 5.50362 11.5137 5.40387L13.3426 3.57661C13.4916 3.42647 13.5946 3.23694 13.6396 3.03027C13.6846 2.8236 13.6696 2.60839 13.5965 2.40992C13.5425 2.258 13.4556 2.11989 13.3421 2.00547L11.5137 0.179329C11.463 0.124223 11.4016 0.0799399 11.3334 0.0491429C11.2651 0.0183459 11.1913 0.00167056 11.1164 0.000119207C11.0415 -0.00143215 10.9671 0.0121725 10.8976 0.0401154C10.8282 0.0680583 10.765 0.109763 10.7121 0.162721C10.6591 0.21568 10.6174 0.2788 10.5895 0.348287C10.5615 0.417775 10.5479 0.492194 10.5495 0.567073C10.551 0.641952 10.5677 0.715745 10.5985 0.784015C10.6293 0.852285 10.6736 0.913624 10.7287 0.964343L12.0026 2.2377C9.26199 2.24437 7.75974 3.72328 6.39749 5.27886C5.14636 3.86662 3.66356 2.45715 1.15629 2.26048L0.889062 2.23492C0.741716 2.23492 0.600406 2.29345 0.496217 2.39764C0.392029 2.50183 0.333496 2.64314 0.333496 2.79049C0.336341 2.93694 0.395787 3.07661 0.499365 3.18018C0.602944 3.28376 0.742607 3.34321 0.889062 3.34605C0.929062 3.34605 1.04851 3.36439 1.04851 3.36439C3.21299 3.52828 4.45524 4.74719 5.66359 6.12388C4.46246 7.4939 3.22855 8.73504 1.08184 8.87948L0.859617 8.89115C0.713377 8.90029 0.576755 8.96714 0.479808 9.07701C0.38286 9.18687 0.333528 9.33075 0.342663 9.47699C0.351798 9.62323 0.418653 9.75986 0.52852 9.8568C0.638387 9.95375 0.782267 10.0031 0.928507 9.99395C1.01517 9.99006 1.15629 9.98673 1.22573 9.98117C4.01467 9.76617 5.52748 7.98113 6.87639 6.42055C8.23864 4.84608 9.52533 3.35605 12.0009 3.34605Z" fill="#F08222"/>
</svg>
