<svg width="44" height="44" viewBox="0 0 44 44" fill="none" xmlns="http://www.w3.org/2000/svg">
<rect width="44" height="44" rx="22" fill="#4AC959"/>
<path d="M21.592 13.6763C17.1545 13.8857 13.6527 17.5515 13.6661 21.958C13.6701 23.3002 13.9968 24.567 14.5731 25.6865L13.6884 29.9464C13.6406 30.1769 13.8501 30.3786 14.0809 30.3244L18.289 29.3355C19.3701 29.8698 20.5845 30.1782 21.8696 30.1977C26.4052 30.2664 30.187 26.6943 30.3285 22.1969C30.4799 17.3762 26.4689 13.4458 21.592 13.6763ZM26.6133 26.5092C25.3809 27.7316 23.7423 28.4048 21.9994 28.4048C20.9789 28.4048 20.0017 28.1777 19.0952 27.7298L18.5094 27.4402L15.9291 28.0464L16.4722 25.4314L16.1836 24.8705C15.7129 23.9564 15.4743 22.9679 15.4743 21.9324C15.4743 20.2035 16.153 18.5783 17.3854 17.3558C18.6067 16.1442 20.272 15.4602 21.9995 15.4602C23.7422 15.4602 25.3809 16.1334 26.6132 17.3558C27.8455 18.5782 28.5243 20.2036 28.5243 21.9323C28.5244 23.6458 27.8347 25.2976 26.6133 26.5092Z" fill="white"/>
<path d="M26.0436 23.7251L24.4294 23.2655C24.2173 23.2051 23.9887 23.2649 23.834 23.4211L23.4392 23.82C23.2728 23.9883 23.0203 24.0423 22.8 23.9539C22.0364 23.6474 20.4301 22.2306 20.0201 21.5222C19.9016 21.3178 19.9213 21.0624 20.0666 20.8757L20.4111 20.4335C20.5461 20.2603 20.5746 20.0275 20.4853 19.8272L19.8063 18.3037C19.6436 17.9388 19.1735 17.8325 18.8664 18.0902C18.4159 18.4682 17.8814 19.0424 17.8165 19.6787C17.7019 20.8006 18.187 22.2146 20.0209 23.9127C22.1397 25.8745 23.8365 26.1335 24.9415 25.8681C25.5681 25.7176 26.0689 25.1142 26.3848 24.6199C26.6004 24.2828 26.43 23.8353 26.0436 23.7251Z" fill="white"/>
<path d="M27.6873 15.891L26.4235 17.176C26.4878 17.2349 26.551 17.294 26.6132 17.3558C27.8455 18.5782 28.5243 20.2036 28.5243 21.9323C28.5244 23.6458 27.8347 25.2976 26.6133 26.5092C25.3809 27.7316 23.7423 28.4048 21.9994 28.4048C20.9789 28.4048 20.0017 28.1777 19.0952 27.7298L18.5094 27.4402L15.9291 28.0464L15.9833 27.7897L13.6986 30.1123C13.749 30.2625 13.9086 30.3648 14.0809 30.3244L18.289 29.3355C19.3701 29.8698 20.5845 30.1782 21.8696 30.1977C26.4052 30.2664 30.187 26.6943 30.3285 22.1969C30.4067 19.7073 29.3753 17.4552 27.6873 15.891Z" fill="white"/>
<path d="M26.0436 23.7251L24.4294 23.2655C24.2173 23.2051 23.9887 23.2649 23.834 23.4211L23.4392 23.82C23.2728 23.9883 23.0203 24.0423 22.8 23.9539C22.3589 23.7768 21.6375 23.2293 21.027 22.6619L19.9049 23.8028C19.9434 23.8393 19.9812 23.8758 20.0209 23.9127C22.1397 25.8745 23.8365 26.1335 24.9415 25.8681C25.5681 25.7176 26.0689 25.1142 26.3848 24.6199C26.6004 24.2828 26.43 23.8353 26.0436 23.7251Z" fill="white"/>
</svg>
